<svg width="566" height="566" viewBox="0 0 566 566" fill="none" xmlns="http://www.w3.org/2000/svg">
<path d="M562 283C562 352.45 536.62 415.98 494.63 464.8C488.24 472.24 481.46 479.34 474.32 486.06C465.49 494.39 456.1 502.15 446.24 509.29C441.57 512.66 436.8 515.89 431.92 518.97C419.55 526.8 406.51 533.68 392.92 539.51C391.71 540.03 390.49 540.55 389.27 541.05C375.71 546.64 361.61 551.19 347.07 554.61C326.5 559.44 305.05 562 283 562C259.83 562 237.32 559.18 215.79 553.85C202.36 550.53 189.31 546.24 176.73 541.05C175.51 540.55 174.3 540.04 173.09 539.51C159.49 533.68 146.45 526.8 134.08 518.97C129.2 515.89 124.43 512.66 119.76 509.28C109.37 501.77 99.52 493.56 90.27 484.73C83.93 478.68 77.88 472.33 72.15 465.7C29.69 416.75 4 352.88 4 283C4 128.91 128.91 4 283 4C437.09 4 562 128.91 562 283Z" fill="#F7E6BD" stroke="#002733" stroke-width="8" stroke-linecap="round" stroke-linejoin="round"/>
<path d="M494.63 464.8C488.24 472.24 481.46 479.34 474.32 486.06C465.49 494.39 456.1 502.15 446.24 509.29C441.57 512.66 436.8 515.89 431.92 518.97C419.55 526.8 406.51 533.68 392.92 539.51C391.71 540.03 390.49 540.55 389.27 541.05C375.71 546.64 361.61 551.19 347.07 554.61C326.5 559.44 305.05 562 283 562C259.83 562 237.32 559.18 215.79 553.85C202.36 550.53 189.31 546.24 176.73 541.05C175.51 540.55 174.3 540.04 173.09 539.51C159.49 533.68 146.45 526.8 134.08 518.97C129.2 515.89 124.43 512.66 119.76 509.28C109.37 501.77 99.5199 493.56 90.2699 484.73C83.9299 478.68 77.8799 472.33 72.1499 465.7C78.6199 379.34 120.47 237.56 129.99 190C86.9899 166.66 102.36 124.89 117.33 112C130.99 100.23 164.55 87 185.21 135.33C274.83 99.33 332.33 118 385.1 134.66C394.66 92.66 438.94 100.64 452.66 112C467.17 124.01 481.99 161.33 440.66 187.55C449.14 252.32 496.76 380.48 494.63 464.8Z" fill="#845639" stroke="#002733" stroke-width="8" stroke-linecap="round" stroke-linejoin="round"/>
<path d="M392.92 539.51C391.71 540.03 390.49 540.55 389.27 541.05C375.71 546.64 361.61 551.19 347.07 554.61C326.5 559.44 305.05 562 283 562C259.83 562 237.32 559.18 215.79 553.85C202.36 550.53 189.31 546.24 176.73 541.05C175.51 540.55 174.3 540.04 173.09 539.51C197.03 506.2 237.33 484.33 283 484.33C328.67 484.33 368.97 506.2 392.92 539.51Z" fill="#AC774C" stroke="#002733" stroke-width="8" stroke-linecap="round" stroke-linejoin="round"/>
<path d="M165.142 134.332C173.155 144.337 164.504 153.799 154.499 161.812C144.494 169.825 136.925 173.353 128.912 163.349C120.899 153.344 122.514 138.739 132.519 130.726C142.524 122.713 157.129 124.328 165.142 134.333V134.332Z" fill="#6A4532"/>
<path d="M405.966 134.332C397.953 144.337 406.604 153.799 416.609 161.812C426.614 169.825 434.183 173.353 442.196 163.349C450.209 153.344 448.594 138.739 438.589 130.726C428.585 122.713 413.979 124.328 405.966 134.333V134.332Z" fill="#6A4532"/>
<path d="M210.254 270.997C218.538 270.997 225.254 264.281 225.254 255.997C225.254 247.713 218.538 240.997 210.254 240.997C201.97 240.997 195.254 247.713 195.254 255.997C195.254 264.281 201.97 270.997 210.254 270.997Z" fill="#002733"/>
<path d="M355.754 270.997C364.038 270.997 370.754 264.281 370.754 255.997C370.754 247.713 364.038 240.997 355.754 240.997C347.47 240.997 340.754 247.713 340.754 255.997C340.754 264.281 347.47 270.997 355.754 270.997Z" fill="#002733"/>
<path d="M348.824 363.997C348.824 411.493 309.967 419.997 283.005 419.997C256.043 419.997 217.186 411.493 217.186 363.997C217.186 316.501 242.505 250.997 283.005 250.997C321.172 250.997 348.824 316.5 348.824 363.997Z" fill="#D9A777" stroke="#002733" stroke-width="8" stroke-linecap="round" stroke-linejoin="round"/>
<path d="M281.921 360.83C281.921 360.83 283.648 377.816 287.171 382.08C292.913 389.03 303.088 385.58 317.088 394.497" stroke="#002733" stroke-width="8" stroke-linecap="round" stroke-linejoin="round"/>
<path d="M284.088 360.83C284.088 360.83 282.361 377.816 278.838 382.08C273.096 389.03 262.921 385.58 248.921 394.497" stroke="#002733" stroke-width="8" stroke-linecap="round" stroke-linejoin="round"/>
<path d="M283.004 366.33C293.645 366.33 304.286 356.185 312.356 345.867C319.456 336.79 312.226 324.33 299.833 324.33H266.174C253.781 324.33 246.552 336.79 253.651 345.867C261.721 356.185 272.363 366.33 283.004 366.33Z" fill="#3C322B" stroke="#002733" stroke-width="8" stroke-linecap="round" stroke-linejoin="round"/>
</svg>
