<svg width="566" height="566" viewBox="0 0 566 566" fill="none" xmlns="http://www.w3.org/2000/svg">
<path d="M562 283C562 363.03 528.3 435.19 474.32 486.06C467.27 492.71 459.86 499 452.14 504.89C450.19 506.39 448.23 507.85 446.24 509.29C441.57 512.66 436.8 515.89 431.92 518.97C418.45 527.5 404.18 534.9 389.27 541.05C375.71 546.64 361.61 551.19 347.07 554.61C336.3 557.14 325.29 559.04 314.08 560.29C303.88 561.42 293.51 562 283 562C272.49 562 262.11 561.42 251.91 560.28C239.61 558.93 227.56 556.76 215.79 553.85C202.36 550.53 189.31 546.24 176.73 541.05C161.82 534.9 147.55 527.5 134.08 518.97C129.2 515.89 124.43 512.66 119.76 509.28C117.77 507.84 115.8 506.38 113.85 504.88C105.62 498.6 97.75 491.87 90.27 484.73C37.11 433.93 4 362.33 4 283C4 128.91 128.91 4 283 4C437.09 4 562 128.91 562 283Z" fill="#BDE5EB" stroke="#002733" stroke-width="8" stroke-linecap="round" stroke-linejoin="round"/>
<path d="M452.5 490.91C452.5 495.61 452.38 500.27 452.14 504.89C450.19 506.39 448.23 507.85 446.24 509.29C441.57 512.66 436.8 515.89 431.92 518.97C418.45 527.5 404.18 534.9 389.27 541.05C375.71 546.64 361.61 551.19 347.07 554.61C336.3 557.14 325.29 559.04 314.08 560.29C303.88 561.42 293.51 562 283 562C272.49 562 262.11 561.42 251.91 560.28C239.61 558.93 227.56 556.76 215.79 553.85C202.36 550.53 189.31 546.24 176.73 541.05C161.82 534.9 147.55 527.5 134.08 518.97C129.2 515.89 124.43 512.66 119.76 509.28C117.77 507.84 115.8 506.38 113.85 504.88C113.62 500.26 113.5 495.6 113.5 490.91C113.5 453.1 121.32 417.58 135.02 386.79C142.82 369.26 152.53 353.27 163.79 339.25C178.22 321.28 195.21 306.54 214.01 296C214.62 295.65 215.22 295.31 215.83 294.98C219.42 293.03 223.06 291.24 226.77 289.6C244.36 281.81 263.29 277.58 283 277.58C302.71 277.58 321.62 281.81 339.21 289.59C342.92 291.23 346.57 293.03 350.16 294.98C350.5 295.16 350.81 295.34 351.13 295.52C370.28 306.11 387.56 321.01 402.21 339.26C413.47 353.28 423.18 369.28 430.98 386.81C444.69 417.6 452.5 453.11 452.5 490.91Z" fill="#809199" stroke="#002733" stroke-width="8" stroke-linecap="round" stroke-linejoin="round"/>
<path d="M217.918 255.86C217.918 329.942 180.136 386.821 133.33 386.821C88.8251 386.821 91.4921 348.345 71.9971 310.664C58.1981 283.994 34.3301 266.367 34.3301 235.664C34.3301 184.664 68.3301 121.724 133.168 121.724C202.996 121.724 217.918 181.779 217.918 255.861V255.86Z" fill="#809199" stroke="#002733" stroke-width="8" stroke-linecap="round" stroke-linejoin="round"/>
<path d="M68.6641 200.664C68.6641 200.664 111.775 123.108 179.331 186.886" stroke="#002733" stroke-width="8" stroke-linecap="round" stroke-linejoin="round"/>
<path d="M347.33 255.86C347.33 329.942 385.112 386.821 431.918 386.821C476.423 386.821 473.756 348.345 493.251 310.664C507.05 283.994 530.918 266.367 530.918 235.664C530.918 184.664 496.918 121.724 432.08 121.724C362.252 121.724 347.33 181.779 347.33 255.861V255.86Z" fill="#809199" stroke="#002733" stroke-width="8" stroke-linecap="round" stroke-linejoin="round"/>
<path d="M496.585 200.664C496.585 200.664 453.474 123.108 385.918 186.886" stroke="#002733" stroke-width="8" stroke-linecap="round" stroke-linejoin="round"/>
<path d="M206.33 364.251C206.33 364.251 207.108 395.886 165.219 448.441C206.775 460.441 240.775 388.552 240.775 388.552L206.331 364.251H206.33Z" fill="white" stroke="#002733" stroke-width="8" stroke-linecap="round" stroke-linejoin="round"/>
<path d="M359.664 364.251C359.664 364.251 358.886 395.886 400.775 448.441C359.219 460.441 325.219 388.552 325.219 388.552L359.664 364.251Z" fill="white" stroke="#002733" stroke-width="8" stroke-linecap="round" stroke-linejoin="round"/>
<path d="M405.83 287.66C408.13 305.74 407.26 324.62 402.21 339.26C399.19 348.01 394.67 355.24 388.44 359.89C386.94 361.01 385.16 362.18 383.16 363.42C377.23 367.09 369.41 371.37 361.53 376.65C351 383.71 340.35 392.56 333.94 404.16C332.56 406.64 331.38 409.25 330.44 412C324.4 429.59 319.38 509.26 314.08 560.29C303.88 561.42 293.51 562 283 562C272.49 562 262.11 561.42 251.91 560.28C246.62 509.25 241.6 429.59 235.55 412C234.61 409.25 233.43 406.64 232.05 404.16C225.64 392.56 214.99 383.71 204.46 376.65C196.36 371.23 188.34 366.87 182.36 363.13C180.55 361.99 178.93 360.92 177.55 359.89C171.32 355.24 166.8 348 163.79 339.25C158.73 324.61 157.87 305.74 160.16 287.66C160.183 287.481 160.205 287.303 160.226 287.125C160.708 283.008 160.124 278.855 158.742 274.946C154.868 263.986 152.77 252.321 152.77 240.22C152.77 218.22 159.67 197.66 171.65 180.15C178.58 170.02 187.2 160.92 197.17 153.15C220.09 135.27 250.12 124.44 283 124.44C315.65 124.44 345.48 135.12 368.34 152.76C378.39 160.52 387.08 169.62 394.08 179.76C406.22 197.36 413.22 218.06 413.22 240.22C413.22 252.321 411.13 263.986 407.258 274.946C405.874 278.863 405.284 283.025 405.768 287.151C405.788 287.32 405.809 287.49 405.83 287.66Z" fill="#92A5B1" stroke="#002733" stroke-width="8" stroke-linecap="round" stroke-linejoin="round"/>
<path d="M266.414 423.664C283.831 414.664 299.581 423.664 299.581 423.664" stroke="#002733" stroke-width="8" stroke-linecap="round" stroke-linejoin="round"/>
<path d="M260.497 386.821C284.128 374.61 305.497 386.821 305.497 386.821" stroke="#002733" stroke-width="8" stroke-linecap="round" stroke-linejoin="round"/>
<path d="M253.83 349.355C284.462 333.526 312.163 349.355 312.163 349.355" stroke="#002733" stroke-width="8" stroke-linecap="round" stroke-linejoin="round"/>
<path d="M215.247 294.997C223.531 294.997 230.247 288.281 230.247 279.997C230.247 271.713 223.531 264.997 215.247 264.997C206.963 264.997 200.247 271.713 200.247 279.997C200.247 288.281 206.963 294.997 215.247 294.997Z" fill="#002733"/>
<path d="M350.747 294.997C359.031 294.997 365.747 288.281 365.747 279.997C365.747 271.713 359.031 264.997 350.747 264.997C342.463 264.997 335.747 271.713 335.747 279.997C335.747 288.281 342.463 294.997 350.747 294.997Z" fill="#002733"/>
<path d="M204.46 376.65C204.46 376.65 210.219 359.352 212.219 339.463" stroke="#002733" stroke-width="8" stroke-linecap="round" stroke-linejoin="round"/>
<path d="M361.53 376.65C361.53 376.65 355.363 359.538 353.363 339.649" stroke="#002733" stroke-width="8" stroke-linecap="round" stroke-linejoin="round"/>
</svg>
