<svg width="566" height="566" viewBox="0 0 566 566" fill="none" xmlns="http://www.w3.org/2000/svg">
<path d="M562 283C562 363.03 528.3 435.19 474.32 486.06C465.49 494.39 456.1 502.15 446.24 509.29C441.57 512.66 436.8 515.89 431.92 518.97C427.2 521.95 422.39 524.8 417.49 527.5C408.38 532.53 398.96 537.05 389.27 541.05C375.71 546.64 361.61 551.19 347.07 554.61C333.55 557.78 319.66 559.98 305.46 561.1C298.05 561.7 290.56 562 283 562C275.44 562 267.95 561.7 260.54 561.1C245.24 559.89 230.29 557.44 215.79 553.85C202.36 550.53 189.31 546.24 176.73 541.05C167.04 537.05 157.62 532.53 148.51 527.5C143.61 524.8 138.8 521.95 134.08 518.97C129.2 515.89 124.43 512.66 119.76 509.28C109.37 501.77 99.52 493.56 90.27 484.73C37.11 433.93 4 362.33 4 283C4 128.91 128.91 4 283 4C437.09 4 562 128.91 562 283Z" fill="#FBE6C0" stroke="#002733" stroke-width="8" stroke-linecap="round" stroke-linejoin="round"/>
<path d="M417.49 527.5C408.38 532.53 398.96 537.05 389.27 541.05C375.71 546.64 361.61 551.19 347.07 554.61C333.55 557.78 319.66 559.98 305.46 561.1C298.05 561.7 290.56 562 283 562C275.44 562 267.95 561.7 260.54 561.1C245.24 559.89 230.29 557.44 215.79 553.85C202.36 550.53 189.31 546.24 176.73 541.05C167.04 537.05 157.62 532.53 148.51 527.5C148.77 476.33 164.22 430.11 188.98 396.9C196.6 386.69 205.09 377.7 214.3 370.19C223.06 363.03 232.47 357.2 242.37 352.9C247.24 350.78 252.24 349.04 257.34 347.69C265.65 345.48 274.22 344.33 283 344.33C291.78 344.33 300.36 345.48 308.67 347.69C313.77 349.04 318.76 350.78 323.64 352.9C333.64 357.24 343.13 363.14 351.96 370.4C360.91 377.74 369.19 386.47 376.62 396.37C401.62 429.61 417.23 476.05 417.49 527.5Z" fill="#F38331" stroke="#002733" stroke-width="8" stroke-linecap="round" stroke-linejoin="round"/>
<mask id="mask0_203_560" style="mask-type:luminance" maskUnits="userSpaceOnUse" x="148" y="344" width="270" height="218">
<path d="M417.49 527.5C408.38 532.53 398.96 537.05 389.27 541.05C375.71 546.64 361.61 551.19 347.07 554.61C333.55 557.78 319.66 559.98 305.46 561.1C298.05 561.7 290.56 562 283 562C275.44 562 267.95 561.7 260.54 561.1C245.24 559.89 230.29 557.44 215.79 553.85C202.36 550.53 189.31 546.24 176.73 541.05C167.04 537.05 157.62 532.53 148.51 527.5C148.77 476.33 164.22 430.11 188.98 396.9C196.6 386.69 205.09 377.7 214.3 370.19C223.06 363.03 232.47 357.2 242.37 352.9C247.24 350.78 252.24 349.04 257.34 347.69C265.65 345.48 274.22 344.33 283 344.33C291.78 344.33 300.36 345.48 308.67 347.69C313.77 349.04 318.76 350.78 323.64 352.9C333.64 357.24 343.13 363.14 351.96 370.4C360.91 377.74 369.19 386.47 376.62 396.37C401.62 429.61 417.23 476.05 417.49 527.5Z" fill="white"/>
</mask>
<g mask="url(#mask0_203_560)">
<path d="M362.04 457.56C362.04 501.23 328.82 539.55 305.46 561.1C298.05 561.7 290.56 562 283 562C275.44 562 267.95 561.7 260.54 561.1C237.18 539.55 203.96 501.23 203.96 457.56C203.96 440.78 206.15 424.8 210.12 410.25C213.35 398.44 217.74 387.57 223.08 378C228.58 368.13 235.09 359.64 242.37 352.9C246.62 348.95 251.13 345.61 255.85 342.95C264.32 338.17 273.46 335.56 283 335.56C292.54 335.56 301.69 338.17 310.16 342.95C314.88 345.61 319.39 348.95 323.64 352.9C331.05 359.76 337.67 368.45 343.23 378.56C348.4 387.93 352.66 398.53 355.82 410.02C359.82 424.63 362.04 440.7 362.04 457.56Z" fill="#FFEDD8"/>
</g>
<path d="M417.49 527.5C408.38 532.53 398.96 537.05 389.27 541.05C375.71 546.64 361.61 551.19 347.07 554.61C333.55 557.78 319.66 559.98 305.46 561.1C298.05 561.7 290.56 562 283 562C275.44 562 267.95 561.7 260.54 561.1C245.24 559.89 230.29 557.44 215.79 553.85C202.36 550.53 189.31 546.24 176.73 541.05C167.04 537.05 157.62 532.53 148.51 527.5C148.77 476.33 164.22 430.11 188.98 396.9C196.6 386.69 205.09 377.7 214.3 370.19C223.06 363.03 232.47 357.2 242.37 352.9C247.24 350.78 252.24 349.04 257.34 347.69C265.65 345.48 274.22 344.33 283 344.33C291.78 344.33 300.36 345.48 308.67 347.69C313.77 349.04 318.76 350.78 323.64 352.9C333.64 357.24 343.13 363.14 351.96 370.4C360.91 377.74 369.19 386.47 376.62 396.37C401.62 429.61 417.23 476.05 417.49 527.5Z" stroke="#002733" stroke-width="8" stroke-linecap="round" stroke-linejoin="round"/>
<path d="M468.003 368.001C421.003 375.331 397.613 384.881 376.623 396.371C341.563 415.561 332.843 437.131 312.003 443.781C296.923 448.591 270.593 449.961 255.563 445.001C237.253 438.961 222.223 414.001 188.983 396.901C170.723 387.511 141.503 377.001 98.1128 366.671C105.333 359.671 112.673 354.561 118.003 349.891C106.223 340.331 97.2228 340.441 73.1128 335.331C102.443 308.671 122.893 268.001 126.673 246.001C113.333 223.781 94.4429 165.561 123.673 88.001C153.833 95.171 210.333 141.001 227.333 167.441C284.893 144.001 340.003 166.671 340.003 166.671C340.003 166.671 376.333 112.781 442.673 86.001C450.003 102.671 467.333 191.671 438.003 246.001C446.993 269.831 458.333 301.001 491.173 335.001C475.393 338.111 458.583 343.251 447.423 350.001C456.123 355.001 464.083 362.261 468.003 368.001Z" fill="#F38331" stroke="#002733" stroke-width="8" stroke-linecap="round" stroke-linejoin="round"/>
<path d="M485.392 328.802C429.629 328.688 410.074 331.873 389.051 343.381C349.379 365.095 339.512 389.503 315.931 397.027C298.867 402.47 269.074 404.02 252.067 398.408C231.349 391.573 214.341 363.33 176.729 343.981C159.661 335.204 124.641 330.254 80.0328 328.609C77.7848 330.927 75.4808 333.179 73.1128 335.331C97.2228 340.441 106.223 340.331 118.003 349.891C112.673 354.561 105.333 359.671 98.1128 366.671C141.503 377.001 170.723 387.511 188.983 396.901C222.223 414.001 237.253 438.961 255.563 445.001C270.593 449.961 296.923 448.591 312.003 443.781C332.843 437.131 341.563 415.561 376.623 396.371C397.613 384.881 421.003 375.331 468.003 368.001C464.083 362.261 456.123 355.001 447.423 350.001C458.583 343.251 475.393 338.111 491.173 335.001C489.166 332.924 487.243 330.857 485.392 328.802Z" fill="#FFF6EB" stroke="#002733" stroke-width="8" stroke-linecap="round" stroke-linejoin="round"/>
<path d="M190.42 187.418C161.642 199.751 126.673 246.001 126.673 246.001C113.333 223.781 94.4432 165.561 123.673 88.001C123.673 88.001 179.336 144.223 190.42 187.418Z" fill="#BC5323" stroke="#002733" stroke-width="8" stroke-linecap="round" stroke-linejoin="round"/>
<path d="M438.003 246.001C438.003 246.001 426.708 217.857 376.266 186.522C386.67 147.001 442.673 86.001 442.673 86.001C450.003 102.671 467.333 191.671 438.003 246.001Z" fill="#BC5323" stroke="#002733" stroke-width="8" stroke-linecap="round" stroke-linejoin="round"/>
<path d="M205.253 333.334C213.537 333.334 220.253 326.618 220.253 318.334C220.253 310.05 213.537 303.334 205.253 303.334C196.969 303.334 190.253 310.05 190.253 318.334C190.253 326.618 196.969 333.334 205.253 333.334Z" fill="#002733"/>
<path d="M360.753 333.334C369.037 333.334 375.753 326.618 375.753 318.334C375.753 310.05 369.037 303.334 360.753 303.334C352.469 303.334 345.753 310.05 345.753 318.334C345.753 326.618 352.469 333.334 360.753 333.334Z" fill="#002733"/>
<path d="M283.003 430.772C294.824 430.772 315.556 408.25 309.645 398.012C303.735 387.775 262.271 387.775 256.361 398.012C250.45 408.249 271.182 430.772 283.003 430.772Z" fill="#002733"/>
<path d="M300.586 398.668C300.586 398.668 300.086 280.446 393.419 264.89" stroke="#002733" stroke-width="8" stroke-linecap="round" stroke-linejoin="round"/>
<path d="M265.42 398.668C265.42 398.668 265.92 280.446 172.587 264.89" stroke="#002733" stroke-width="8" stroke-linecap="round" stroke-linejoin="round"/>
</svg>
