<svg width="566" height="566" viewBox="0 0 566 566" fill="none" xmlns="http://www.w3.org/2000/svg">
<path d="M562 283C562 363.03 528.3 435.19 474.32 486.06C465.49 494.39 456.1 502.15 446.24 509.29C441.57 512.66 436.8 515.89 431.92 518.97C418.45 527.5 404.18 534.9 389.27 541.05C377.51 545.9 365.33 549.97 352.82 553.19C350.91 553.69 348.99 554.16 347.07 554.61C326.5 559.44 305.05 562 283 562C277.94 562 272.92 561.86 267.93 561.59C250.05 560.65 232.62 558.02 215.79 553.85C214.92 553.63 214.05 553.41 213.18 553.19C200.67 549.97 188.49 545.9 176.73 541.05C161.82 534.9 147.55 527.5 134.08 518.97C129.2 515.89 124.43 512.66 119.76 509.28C109.37 501.77 99.52 493.56 90.27 484.73C37.11 433.93 4 362.33 4 283C4 128.91 128.91 4 283 4C437.09 4 562 128.91 562 283Z" fill="#F6E6BD" stroke="#002733" stroke-width="8" stroke-linecap="round" stroke-linejoin="round"/>
<path d="M479.85 139.35C476.17 174.3 433.74 226.82 382.49 213.89C380.23 220.17 383.73 232.33 383.51 241.11C383.15 255.11 377.4 266.12 373.38 283.89C371.78 290.98 371.18 300.58 370.5 309.58C370.06 315.35 369.58 320.88 368.77 325.34C368.57 326.47 368.35 327.52 368.1 328.5C361.75 353.38 344.44 367.98 339.99 382.3C339.29 384.53 338.91 386.75 338.93 389C338.97 393.21 339.03 397.34 339.09 401.38C339.1 401.42 339.1 401.46 339.09 401.5C339.28 411.82 339.56 421.59 339.91 430.84V430.94C339.99 432.96 340.07 434.95 340.16 436.92C340.35 441.27 340.55 445.5 340.78 449.61C340.88 451.62 341 453.59 341.11 455.54C341.46 461.49 341.85 467.19 342.26 472.64C342.63 477.49 343.02 482.15 343.42 486.62C343.53 487.88 343.65 489.13 343.77 490.36C343.86 491.29 343.95 492.22 344.04 493.13C344.07 493.43 344.1 493.72 344.13 494.01C344.42 496.93 344.71 499.77 345.02 502.51C345.09 503.15 345.16 503.79 345.23 504.42C345.26 504.68 345.29 504.94 345.32 505.19C345.42 506.08 345.52 506.95 345.62 507.81C345.72 508.67 345.83 509.53 345.93 510.37C346.08 511.62 346.24 512.84 346.39 514.05C346.44 514.49 346.5 514.93 346.56 515.36C346.58 515.55 346.6 515.74 346.63 515.92C346.66 516.17 346.69 516.41 346.72 516.65C347.09 519.41 347.46 522.07 347.83 524.62C348 525.8 348.17 526.96 348.34 528.09C348.7 530.51 349.07 532.83 349.44 535.05C349.54 535.7 349.65 536.35 349.76 536.98C350.08 538.89 350.4 540.72 350.72 542.47C350.88 543.36 351.04 544.23 351.2 545.08C351.47 546.48 351.73 547.82 351.98 549.11C352.18 550.11 352.38 551.07 352.57 552.01C352.65 552.41 352.73 552.8 352.81 553.19C350.91 553.69 348.99 554.16 347.07 554.61C326.5 559.44 305.05 562 283 562C277.94 562 272.92 561.86 267.93 561.59C250.05 560.65 232.62 558.02 215.79 553.85C214.92 553.63 214.05 553.41 213.18 553.19C213.28 552.75 213.37 552.31 213.46 551.86C213.97 549.38 214.5 546.7 215.03 543.82C215.17 543.08 215.3 542.34 215.44 541.58C216.53 535.52 217.64 528.6 218.72 520.76C218.82 520.03 218.92 519.28 219.03 518.53C219.13 517.78 219.23 517.02 219.33 516.25C219.66 513.69 219.99 511.04 220.32 508.3C220.41 507.5 220.51 506.69 220.6 505.87C220.7 505.01 220.8 504.14 220.9 503.26C221.21 500.47 221.51 497.59 221.82 494.61C221.9 493.83 221.97 493.04 222.05 492.24C222.29 489.76 222.53 487.21 222.76 484.6C222.83 483.87 222.89 483.14 222.95 482.4C223.03 481.43 223.12 480.44 223.2 479.45C223.26 478.71 223.32 477.96 223.38 477.21C223.64 474.07 223.88 470.83 224.11 467.51C224.26 465.46 224.4 463.37 224.54 461.24C224.55 461.08 224.56 460.92 224.57 460.75C224.67 459.25 224.76 457.74 224.85 456.2C224.9 455.35 224.95 454.5 225 453.64C225.19 450.2 225.38 446.67 225.56 443.06C225.56 442.98 225.57 442.9 225.57 442.82C225.65 441.09 225.73 439.34 225.81 437.57C225.85 436.65 225.89 435.72 225.93 434.79C225.98 433.65 226.02 432.5 226.07 431.34C226.1 430.6 226.13 429.86 226.15 429.11C226.26 426.24 226.36 423.32 226.45 420.35C226.6 415.41 226.73 410.32 226.83 405.1C226.87 403.29 226.9 401.46 226.93 399.61C226.97 397.6 227 395.57 227.02 393.52C227.04 392.03 227.06 390.52 227.07 389V388.82C227.07 388.56 227.06 388.31 227.05 388.05C227.02 387.14 226.92 386.23 226.75 385.32C226.72 385.12 226.68 384.92 226.64 384.73C226.53 384.19 226.41 383.66 226.25 383.12C226.18 382.83 226.09 382.54 226 382.25C225.96 382.12 225.92 381.99 225.87 381.86C225.73 381.41 225.57 380.96 225.39 380.51C225.33 380.35 225.27 380.18 225.2 380.02C224.9 379.26 224.56 378.49 224.19 377.72C224.08 377.49 223.97 377.25 223.85 377.02C222.53 374.36 220.87 371.64 219.02 368.82C218.75 368.41 218.48 368 218.2 367.58C214.86 362.55 211 357.14 207.43 351.02C207.25 350.72 207.08 350.41 206.9 350.1C206.72 349.79 206.54 349.48 206.37 349.17C206.02 348.54 205.67 347.91 205.33 347.27C204.47 345.67 203.64 344.01 202.85 342.3C202.54 341.62 202.23 340.93 201.93 340.23C201.77 339.88 201.62 339.53 201.48 339.17C201.33 338.82 201.19 338.46 201.04 338.1C200.9 337.75 200.76 337.38 200.62 337.02C200.36 336.35 200.11 335.66 199.86 334.97C199.62 334.28 199.38 333.57 199.16 332.87C198.97 332.3 198.8 331.73 198.63 331.15C198.56 330.94 198.5 330.72 198.44 330.51C198.25 329.85 198.07 329.18 197.9 328.5C197.79 328.07 197.68 327.62 197.58 327.15C197.52 326.86 197.46 326.56 197.4 326.26C197.25 325.53 197.12 324.77 196.99 323.98C196.8 322.75 196.62 321.45 196.46 320.1C196.39 319.48 196.33 318.9 196.26 318.31C196.2 317.8 196.16 317.27 196.1 316.74C196.1 316.7 196.09 316.67 196.09 316.63C196.08 316.54 196.07 316.45 196.07 316.36C195.99 315.49 195.91 314.61 195.83 313.71C195.81 313.46 195.79 313.21 195.77 312.96C195.69 311.97 195.61 310.97 195.53 309.96C195.53 309.93 195.53 309.91 195.52 309.88C195.43 308.59 195.33 307.28 195.23 305.97C195.18 305.32 195.13 304.67 195.08 304.01C194.98 302.7 194.88 301.38 194.77 300.08C194.28 294.19 193.66 288.51 192.62 283.89C188.6 266.12 182.85 255.11 182.49 241.11C182.27 232.33 185.77 220.17 183.51 213.89C131.25 227.07 88.1697 172.22 85.9797 137.32C85.6097 131.52 86.3796 126.28 88.4096 121.99C88.4796 121.84 88.5496 121.7 88.6196 121.56C142.62 118.44 166 130.03 181.95 144.33C192.73 154 195.62 169 205.73 168.89C218.18 168.75 220.67 155.03 221.07 147.33C221.2 144.71 221.38 141.03 221.46 136.83C221.59 129.7 221.46 121.06 220.39 113.51C219.62 108.06 218.37 103.2 216.38 99.88C216.08 99.36 215.75 98.88 215.4 98.44C191.23 67.83 213.46 53.69 225.18 52.22C234.56 51.04 240.68 52.85 244.63 56.31C244.9 56.55 245.17 56.8 245.42 57.05C250.8 62.47 251.64 71.29 251.43 79.29C251.42 79.64 251.41 79.98 251.4 80.32C251.31 82.71 251.14 85.01 250.99 87.1C250.97 87.4 250.94 87.7 250.92 87.99C250.92 88.04 250.91 88.1 250.91 88.15C250.86 88.8 250.82 89.42 250.78 90.01C250.74 90.69 250.7 91.34 250.68 91.94C250.66 92.65 250.65 93.29 250.67 93.87C250.68 94.24 250.7 94.58 250.73 94.89C254.45 131.62 268.6 141.45 282.43 141.14C282.48 141.13 282.54 141.11 282.6 141.11C282.73 141.12 282.87 141.12 283 141.12C283.13 141.12 283.27 141.12 283.4 141.11C283.46 141.11 283.52 141.13 283.57 141.14C290.52 141.3 297.56 138.89 303.3 131.79C308.77 125.04 313.08 114.04 315.05 96.95C315.1 96.44 315.16 95.93 315.21 95.43C315.23 95.25 315.25 95.07 315.27 94.89C316.27 85 305.77 47.83 340.82 52.22C352.54 53.69 374.77 67.83 350.6 98.44C350.22 98.92 349.87 99.44 349.54 100.02C349.44 100.19 349.34 100.37 349.24 100.55C349.06 100.87 348.9 101.21 348.74 101.56C348.64 101.77 348.54 101.98 348.45 102.2C348.26 102.65 348.08 103.11 347.91 103.59C347.8 103.88 347.7 104.18 347.6 104.48C347.54 104.66 347.48 104.82 347.43 104.99C344.4 114.66 344.3 129.57 344.62 139.89C344.71 142.82 344.83 145.37 344.93 147.33C345.33 155.03 347.82 168.75 360.27 168.89C370.38 169 375.42 155.67 385.84 144.44C400.43 128.74 423.38 118.44 477.38 121.56C477.83 122.46 478.23 123.41 478.57 124.4C480.05 128.72 480.44 133.82 479.85 139.35Z" fill="#F9CE4B" stroke="#002733" stroke-width="8" stroke-linecap="round" stroke-linejoin="round"/>
<path d="M478.57 124.4C467.42 126.95 455.526 146.493 448.891 146.215C405.579 144.403 392.668 176.236 392.668 176.236C392.668 176.236 344.445 182.014 327.835 211.014C302.505 255.244 301.825 301.561 309.149 327.383C311.689 336.34 328.266 356.434 336.021 380.729C338.76 389.31 338.168 395.902 338.168 395.902L340.211 436.884L340.161 436.914L308.001 460.434H266.671L234.461 436.884C234.461 436.884 226.865 406.295 227.901 395.994C231.834 356.883 252.581 347.714 256.501 329.324C262.101 303.074 270.063 257.925 244.723 213.695C228.113 184.695 178.031 180.705 178.031 180.705C178.031 180.705 169.781 155.105 125.781 146.215C117.401 144.525 100.765 127.077 88.945 124.347C88.565 118.357 86.4308 125.925 88.6208 121.555C142.621 118.435 166.001 130.025 181.951 144.325C192.731 153.995 195.621 168.995 205.731 168.885C218.181 168.745 220.671 155.025 221.071 147.325C221.201 144.705 221.381 141.025 221.461 136.825L218.668 75.866L246.001 74.217L260.328 128.456L283.001 141.115L303.298 131.789L318.446 86.884L348.89 89.106L344.621 139.885C344.711 142.815 344.831 145.365 344.931 147.325C345.331 155.025 347.821 168.745 360.271 168.885C370.381 168.995 375.421 155.665 385.841 144.435C400.431 128.735 423.381 118.435 477.381 121.555C479.821 126.415 479.29 117.6 478.57 124.399V124.4Z" fill="#F6A83A"/>
<path d="M133.359 148.663C133.359 148.663 148.138 152.52 159.359 159.774C190.5 179.904 183.47 213.885 183.47 213.885" stroke="#002733" stroke-width="8" stroke-linecap="round" stroke-linejoin="round"/>
<path d="M183.471 213.885L200.693 192.774" stroke="#002733" stroke-width="8" stroke-linecap="round" stroke-linejoin="round"/>
<path d="M438.037 146.487C430.574 147.618 413.791 153.331 406.641 159.586C373.872 188.251 382.531 213.697 382.531 213.697" stroke="#002733" stroke-width="8" stroke-linecap="round" stroke-linejoin="round"/>
<path d="M382.53 213.696L365.308 192.585" stroke="#002733" stroke-width="8" stroke-linecap="round" stroke-linejoin="round"/>
<path d="M213.834 269.663C221.566 269.663 227.834 263.395 227.834 255.663C227.834 247.931 221.566 241.663 213.834 241.663C206.102 241.663 199.834 247.931 199.834 255.663C199.834 263.395 206.102 269.663 213.834 269.663Z" fill="#002733"/>
<path d="M352.167 269.663C359.899 269.663 366.167 263.395 366.167 255.663C366.167 247.931 359.899 241.663 352.167 241.663C344.435 241.663 338.167 247.931 338.167 255.663C338.167 263.395 344.435 269.663 352.167 269.663Z" fill="#002733"/>
<path d="M227.158 388.996C227.158 388.996 231.834 365.237 241.759 356.885" stroke="#002733" stroke-width="8" stroke-linecap="round" stroke-linejoin="round"/>
<path d="M338.843 389.349C338.843 389.349 335 366.403 324.242 357.238" stroke="#002733" stroke-width="8" stroke-linecap="round" stroke-linejoin="round"/>
<path d="M250.67 93.866C239.27 93.746 226.34 96.816 216.38 99.876C216.08 99.356 215.75 98.876 215.4 98.436C191.23 67.826 213.46 53.686 225.18 52.216C259.12 47.966 250.35 82.686 250.67 93.866Z" fill="#B2682A"/>
<path d="M350.6 98.436C349.29 100.096 348.25 102.346 347.43 104.986C337.65 100.046 325.31 97.126 315.21 95.426L315.27 94.886C316.27 84.996 305.77 47.826 340.82 52.216C352.54 53.686 374.77 67.826 350.6 98.436Z" fill="#B2682A"/>
<path d="M224.69 317.44C224.69 328.49 215.74 337.44 204.69 337.44C203.3 337.44 201.93 337.3 200.62 337.02C199.58 334.32 198.66 331.48 197.9 328.5C196.12 321.54 195.64 310.49 194.77 300.08C197.69 298.4 201.08 297.44 204.69 297.44C215.74 297.44 224.69 306.39 224.69 317.44Z" fill="#F6A83A"/>
<path d="M371.389 319.651C373.434 310.991 368.071 302.313 359.411 300.269C350.751 298.225 342.074 303.588 340.029 312.247C337.985 320.907 343.348 329.584 352.008 331.629C360.667 333.673 369.345 328.311 371.389 319.651Z" fill="#F6A83A"/>
<path d="M351.981 549.11C347.681 550.71 343.031 551.59 338.171 551.59C316.311 551.59 298.591 533.87 298.591 512.02C298.591 490.17 316.311 472.44 338.171 472.44C339.551 472.44 340.911 472.51 342.261 472.64C344.901 507.61 348.671 532.44 351.981 549.11Z" fill="#B2682A"/>
<path d="M274.03 540.46C274.03 548.23 271.79 555.47 267.93 561.59C250.05 560.65 232.62 558.02 215.79 553.85C214.92 553.63 214.05 553.41 213.18 553.19C213.28 552.75 213.37 552.31 213.46 551.86C213.97 549.38 214.5 546.7 215.03 543.82C215.17 543.09 215.3 542.34 215.44 541.58C216.53 535.52 217.64 528.6 218.72 520.76C218.82 520.03 218.92 519.28 219.03 518.53C219.13 517.78 219.23 517.02 219.33 516.25C219.66 513.69 219.99 511.04 220.32 508.3C220.41 507.5 220.51 506.69 220.6 505.87C220.7 505.01 220.8 504.14 220.9 503.26C225.13 501.72 229.7 500.88 234.46 500.88C256.31 500.88 274.03 518.6 274.03 540.46Z" fill="#B2682A"/>
<path d="M479.85 139.35C476.17 174.3 433.74 226.82 382.49 213.89C380.23 220.17 383.73 232.33 383.51 241.11C383.15 255.11 377.4 266.12 373.38 283.89C371.78 290.98 371.18 300.58 370.5 309.58C370.06 315.35 369.58 320.88 368.77 325.34C368.57 326.47 368.35 327.52 368.1 328.5C361.75 353.38 344.44 367.98 339.99 382.3C339.29 384.53 338.91 386.75 338.93 389C338.97 393.21 339.03 397.34 339.09 401.38C339.1 401.42 339.1 401.46 339.09 401.5C339.28 411.82 339.56 421.59 339.91 430.84V430.94C339.99 432.96 340.07 434.95 340.16 436.92C340.35 441.27 340.55 445.5 340.78 449.61C340.88 451.62 341 453.59 341.11 455.54C341.46 461.49 341.85 467.19 342.26 472.64C342.63 477.49 343.02 482.15 343.42 486.62C343.53 487.88 343.65 489.13 343.77 490.36C343.86 491.29 343.95 492.22 344.04 493.13C344.07 493.43 344.1 493.72 344.13 494.01C344.42 496.93 344.71 499.77 345.02 502.51C345.09 503.15 345.16 503.79 345.23 504.42C345.26 504.68 345.29 504.94 345.32 505.19C345.42 506.08 345.52 506.95 345.62 507.81C345.72 508.67 345.83 509.53 345.93 510.37C346.08 511.62 346.24 512.84 346.39 514.05C346.44 514.48 346.5 514.91 346.55 515.34C346.58 515.55 346.6 515.74 346.63 515.92C346.66 516.17 346.69 516.41 346.72 516.65C347.09 519.41 347.46 522.07 347.83 524.62C348 525.8 348.17 526.96 348.34 528.09C348.7 530.51 349.07 532.83 349.44 535.05C349.54 535.7 349.65 536.35 349.76 536.98C350.08 538.89 350.4 540.72 350.72 542.47C350.88 543.36 351.04 544.23 351.2 545.08C351.47 546.48 351.73 547.82 351.98 549.11C352.18 550.11 352.38 551.07 352.57 552.01C352.65 552.41 352.74 552.8 352.82 553.19C350.91 553.69 348.99 554.16 347.07 554.61C326.5 559.44 305.05 562 283 562C277.94 562 272.92 561.86 267.93 561.59C250.05 560.65 232.62 558.02 215.79 553.85C214.92 553.63 214.05 553.41 213.18 553.19C213.28 552.75 213.37 552.31 213.46 551.86C213.97 549.38 214.5 546.7 215.03 543.82C215.17 543.08 215.3 542.34 215.44 541.58C216.53 535.52 217.64 528.6 218.72 520.76C218.82 520.03 218.92 519.28 219.03 518.53C219.13 517.78 219.23 517.02 219.33 516.25C219.66 513.69 219.99 511.04 220.32 508.3C220.41 507.5 220.51 506.69 220.6 505.87C220.7 505.01 220.8 504.14 220.9 503.26C221.21 500.47 221.51 497.59 221.82 494.61C221.9 493.83 221.97 493.04 222.05 492.24C222.29 489.76 222.53 487.21 222.76 484.6C222.83 483.87 222.89 483.14 222.95 482.4C223.03 481.43 223.12 480.44 223.2 479.45C223.26 478.71 223.32 477.96 223.38 477.21C223.64 474.07 223.88 470.83 224.11 467.51C224.26 465.46 224.4 463.37 224.54 461.24C224.55 461.08 224.56 460.92 224.57 460.75C224.67 459.25 224.76 457.74 224.85 456.2C224.9 455.35 224.95 454.5 225 453.64C225.2 450.19 225.39 446.67 225.56 443.06C225.56 442.98 225.57 442.9 225.57 442.82C225.65 441.09 225.73 439.34 225.81 437.57C225.85 436.65 225.89 435.72 225.93 434.79C225.98 433.65 226.02 432.5 226.07 431.34C226.1 430.6 226.13 429.86 226.15 429.11C226.26 426.24 226.36 423.32 226.45 420.35C226.6 415.41 226.73 410.32 226.83 405.1C226.87 403.29 226.9 401.46 226.93 399.61C226.97 397.6 227 395.57 227.02 393.52C227.04 392.03 227.06 390.52 227.07 389V388.82C227.07 388.56 227.06 388.31 227.05 388.05C227.02 387.14 226.92 386.23 226.75 385.32C226.72 385.12 226.68 384.92 226.64 384.73C226.53 384.19 226.41 383.66 226.25 383.12C226.18 382.83 226.09 382.54 226 382.25C225.96 382.12 225.92 381.99 225.87 381.86C225.73 381.41 225.57 380.96 225.39 380.51C225.33 380.35 225.27 380.18 225.2 380.02C224.9 379.26 224.56 378.49 224.19 377.72C224.08 377.49 223.97 377.25 223.85 377.02C222.53 374.36 220.87 371.64 219.02 368.82C218.75 368.41 218.48 368 218.2 367.58C214.86 362.55 211 357.14 207.43 351.02C207.25 350.72 207.08 350.41 206.9 350.1C206.72 349.79 206.54 349.48 206.37 349.17C206.02 348.54 205.67 347.91 205.33 347.27C204.47 345.67 203.64 344.01 202.85 342.3C202.54 341.62 202.23 340.93 201.93 340.23C201.77 339.88 201.62 339.53 201.48 339.17C201.33 338.82 201.19 338.46 201.04 338.1C200.9 337.75 200.76 337.38 200.62 337.02C200.36 336.35 200.11 335.66 199.86 334.97C199.62 334.28 199.38 333.57 199.16 332.87C198.97 332.3 198.8 331.73 198.63 331.15C198.56 330.94 198.5 330.72 198.44 330.51C198.25 329.85 198.07 329.18 197.9 328.5C197.79 328.07 197.68 327.62 197.58 327.15C197.52 326.86 197.46 326.56 197.4 326.26C197.25 325.53 197.12 324.77 196.99 323.98C196.8 322.75 196.62 321.45 196.46 320.1C196.39 319.48 196.33 318.9 196.26 318.31C196.2 317.8 196.16 317.27 196.1 316.74C196.1 316.7 196.09 316.67 196.09 316.63C196.08 316.54 196.07 316.45 196.07 316.36C195.99 315.49 195.91 314.61 195.83 313.71C195.81 313.46 195.79 313.21 195.77 312.96C195.69 311.97 195.61 310.97 195.53 309.96C195.53 309.93 195.53 309.91 195.52 309.88C195.43 308.59 195.33 307.28 195.23 305.97C195.18 305.32 195.13 304.67 195.08 304.01C194.98 302.7 194.88 301.38 194.77 300.08C194.28 294.19 193.66 288.51 192.62 283.89C188.6 266.12 182.85 255.11 182.49 241.11C182.27 232.33 185.77 220.17 183.51 213.89C131.25 227.07 88.1697 172.22 85.9797 137.32C85.6097 131.52 86.3796 126.28 88.4096 121.99C88.4796 121.84 88.5496 121.7 88.6196 121.56C142.62 118.44 166 130.03 181.95 144.33C192.73 154 195.62 169 205.73 168.89C218.18 168.75 220.67 155.03 221.07 147.33C221.2 144.71 221.38 141.03 221.46 136.83C221.59 129.7 221.46 121.06 220.39 113.51C219.62 108.06 218.37 103.2 216.38 99.88C216.08 99.36 215.75 98.88 215.4 98.44C191.23 67.83 213.46 53.69 225.18 52.22C234.56 51.04 240.68 52.85 244.63 56.31C244.9 56.55 245.17 56.8 245.42 57.05C250.8 62.47 251.64 71.29 251.43 79.29C251.42 79.64 251.41 79.98 251.4 80.32C251.31 82.71 251.14 85.01 250.99 87.1C250.97 87.4 250.94 87.7 250.92 87.99C250.92 88.04 250.91 88.1 250.91 88.15C250.86 88.8 250.82 89.42 250.78 90.01C250.74 90.69 250.7 91.34 250.68 91.94C250.66 92.65 250.65 93.29 250.67 93.87C250.68 94.24 250.7 94.58 250.73 94.89C254.45 131.62 268.6 141.45 282.43 141.14C282.48 141.13 282.54 141.11 282.6 141.11C282.73 141.12 282.87 141.12 283 141.12C283.13 141.12 283.27 141.12 283.4 141.11C283.46 141.11 283.52 141.13 283.57 141.14C290.52 141.3 297.56 138.89 303.3 131.79C308.77 125.04 313.08 114.04 315.05 96.95C315.1 96.44 315.16 95.93 315.21 95.43C315.23 95.25 315.25 95.07 315.27 94.89C316.27 85 305.77 47.83 340.82 52.22C352.54 53.69 374.77 67.83 350.6 98.44C350.22 98.92 349.87 99.44 349.54 100.02C349.44 100.19 349.34 100.37 349.24 100.55C349.06 100.87 348.9 101.21 348.74 101.56C348.64 101.77 348.54 101.98 348.45 102.2C348.26 102.65 348.08 103.11 347.91 103.59C347.8 103.88 347.7 104.18 347.6 104.48C347.54 104.66 347.48 104.82 347.43 104.99C344.4 114.66 344.3 129.57 344.62 139.89C344.71 142.82 344.83 145.37 344.93 147.33C345.33 155.03 347.82 168.75 360.27 168.89C370.38 169 375.42 155.67 385.84 144.44C400.43 128.74 423.38 118.44 477.38 121.56C477.83 122.46 478.23 123.41 478.57 124.4C480.05 128.72 480.44 133.82 479.85 139.35Z" stroke="#002733" stroke-width="8" stroke-linecap="round" stroke-linejoin="round"/>
<path d="M339.105 400.903C339.105 434.408 314.045 461.57 283.131 461.57C252.217 461.57 227.157 434.409 227.157 400.903" stroke="#002733" stroke-width="8" stroke-linecap="round" stroke-linejoin="round"/>
<path d="M251.824 416.07C267.324 417.403 266.157 431.237 266.157 431.237" stroke="#002733" stroke-width="8" stroke-linecap="round" stroke-linejoin="round"/>
<path d="M314.177 416.07C298.677 417.403 299.844 431.237 299.844 431.237" stroke="#002733" stroke-width="8" stroke-linecap="round" stroke-linejoin="round"/>
</svg>
