<svg width="566" height="597" viewBox="0 0 566 597" fill="none" xmlns="http://www.w3.org/2000/svg">
<path d="M562 313.837C562 427.587 493.92 525.438 396.29 568.867C377.64 577.167 357.91 583.487 337.37 587.537C319.78 591.017 301.6 592.837 283 592.837C263.94 592.837 245.33 590.917 227.36 587.287C206.88 583.137 187.22 576.747 168.64 568.388C71.58 524.728 4 427.167 4 313.837C4 159.747 128.91 34.8375 283 34.8375C437.09 34.8375 562 159.747 562 313.837Z" fill="#E4FFC7" stroke="#002733" stroke-width="8" stroke-linecap="round" stroke-linejoin="round"/>
<path d="M317.134 215.834C317.134 215.834 324.301 185.167 343.301 165.001C367.297 139.532 411.684 147.426 457.468 84.1685C479.301 54.0015 469.801 7.50146 469.801 7.50146" stroke="#002733" stroke-width="15" stroke-linecap="round" stroke-linejoin="round"/>
<path d="M403.801 34.8345C442.817 102.182 391.591 139.038 391.591 139.038" stroke="#002733" stroke-width="15" stroke-linecap="round" stroke-linejoin="round"/>
<path d="M336.329 173.521C336.329 173.521 351.635 142.168 323.801 99.5015" stroke="#002733" stroke-width="15" stroke-linecap="round" stroke-linejoin="round"/>
<path d="M248.858 215.834C248.858 215.834 241.691 185.167 222.691 165.001C198.695 139.532 154.308 147.426 108.524 84.1685C86.6909 54.0015 96.1909 7.50146 96.1909 7.50146" stroke="#002733" stroke-width="15" stroke-linecap="round" stroke-linejoin="round"/>
<path d="M162.191 34.8345C123.175 102.182 174.401 139.038 174.401 139.038" stroke="#002733" stroke-width="15" stroke-linecap="round" stroke-linejoin="round"/>
<path d="M229.664 173.521C229.664 173.521 214.358 142.168 242.192 99.5015" stroke="#002733" stroke-width="15" stroke-linecap="round" stroke-linejoin="round"/>
<path d="M396.29 568.867C361.67 584.277 323.33 592.837 283 592.837C242.25 592.837 203.54 584.098 168.64 568.388C168.81 564.358 169.1 560.797 169.55 557.947C173.4 533.307 194.83 485.967 200.66 461.727C207.51 433.277 209.33 338.837 209.33 338.837L355.1 340.878C355.1 340.878 360.29 426.357 363.33 454.837C367.11 490.167 388.342 533.333 389.727 537.084C394.23 549.281 396.644 559.584 396.29 568.867Z" fill="#D5864C" stroke="#002733" stroke-width="8" stroke-linecap="round" stroke-linejoin="round"/>
<path d="M342.75 543.737C342.75 560.927 340.81 575.457 337.37 587.537C319.78 591.017 301.6 592.837 283 592.837C263.94 592.837 245.33 590.917 227.36 587.287C224.71 576.427 223.25 563.477 223.25 548.187C223.25 483.017 249.68 399.967 282.29 399.967C314.9 399.967 342.75 478.577 342.75 543.737Z" fill="#EFC293"/>
<path d="M396.29 568.867C361.67 584.277 323.33 592.837 283 592.837C242.25 592.837 203.54 584.098 168.64 568.388C168.81 564.358 169.1 560.797 169.55 557.947C173.4 533.307 194.83 485.967 200.66 461.727C207.51 433.277 209.33 338.837 209.33 338.837L355.1 340.878C355.1 340.878 360.29 426.357 363.33 454.837C367.11 490.167 388.342 533.333 389.727 537.084C394.23 549.281 396.644 559.584 396.29 568.867Z" stroke="#002733" stroke-width="8" stroke-linecap="round" stroke-linejoin="round"/>
<path d="M186.663 268.167C127.33 268.5 92.3299 226.5 93.3299 167.723C134.663 158.167 197.33 189.501 216.163 221.001C270.83 186.668 318.163 204.334 350.33 219.501C377.552 179.501 449.33 162.39 469.774 166.39C482.218 201.723 437.107 274.835 379.996 267.723C383.329 287.167 382.69 302.527 380.44 313.834C376.329 334.501 364.511 358.748 355.996 371.834C340.885 395.056 334.218 429.056 320.218 439.723C291.43 461.657 262.218 454.167 247.107 441.056C231.553 427.56 224.218 395.5 207.496 368.834C199.173 355.561 186.163 333.334 184.885 310.39C184.298 299.841 183.829 284.502 186.663 268.169V268.167Z" fill="#D5864C" stroke="#002733" stroke-width="8" stroke-linecap="round" stroke-linejoin="round"/>
<path d="M335.437 408.55C340.184 379.293 320.316 351.728 291.059 346.98C261.802 342.233 234.236 362.101 229.489 391.358C224.741 420.615 244.61 448.181 273.867 452.928C303.123 457.676 330.689 437.807 335.437 408.55Z" fill="#EFC293"/>
<path d="M186.663 268.167C127.33 268.5 92.3299 226.5 93.3299 167.723C134.663 158.167 197.33 189.501 216.163 221.001C270.83 186.668 318.163 204.334 350.33 219.501C377.552 179.501 449.33 162.39 469.774 166.39C482.218 201.723 437.107 274.835 379.996 267.723C383.329 287.167 382.69 302.527 380.44 313.834C376.329 334.501 364.511 358.748 355.996 371.834C340.885 395.056 334.218 429.056 320.218 439.723C291.43 461.657 262.218 454.167 247.107 441.056C231.553 427.56 224.218 395.5 207.496 368.834C199.173 355.561 186.163 333.334 184.885 310.39C184.298 299.841 183.829 284.502 186.663 268.169V268.167Z" stroke="#002733" stroke-width="8" stroke-linecap="round" stroke-linejoin="round"/>
<path d="M144.996 201.167C152.996 203.167 207.663 234.667 186.663 268.167" stroke="#002733" stroke-width="8" stroke-linecap="round" stroke-linejoin="round"/>
<path d="M421.433 201.167C413.433 203.167 358.766 234.667 379.766 268.167" stroke="#002733" stroke-width="8" stroke-linecap="round" stroke-linejoin="round"/>
<path d="M223.246 319.39C231.53 319.39 238.246 312.675 238.246 304.39C238.246 296.106 231.53 289.39 223.246 289.39C214.962 289.39 208.246 296.106 208.246 304.39C208.246 312.675 214.962 319.39 223.246 319.39Z" fill="#002733"/>
<path d="M342.746 319.39C351.03 319.39 357.746 312.675 357.746 304.39C357.746 296.106 351.03 289.39 342.746 289.39C334.462 289.39 327.746 296.106 327.746 304.39C327.746 312.675 334.462 319.39 342.746 319.39Z" fill="#002733"/>
<path d="M282.996 410.332C294.817 410.332 315.549 387.81 309.638 377.572C303.728 367.335 262.264 367.335 256.354 377.572C250.444 387.809 271.175 410.332 282.996 410.332Z" fill="#002733"/>
<path d="M317.375 412.457C316.549 414.998 315.352 417.304 313.867 419.271C310.633 423.555 306.035 426.232 300.933 426.232C291.145 426.232 282.321 415.12 283.037 397.898" stroke="#002733" stroke-width="8" stroke-linecap="round" stroke-linejoin="round"/>
<path d="M248.617 412.457C249.443 414.998 250.64 417.304 252.125 419.271C255.359 423.555 259.957 426.232 265.059 426.232C274.847 426.232 283.671 415.12 282.955 397.898" stroke="#002733" stroke-width="8" stroke-linecap="round" stroke-linejoin="round"/>
</svg>
