<svg width="566" height="566" viewBox="0 0 566 566" fill="none" xmlns="http://www.w3.org/2000/svg">
<path d="M562 283C562 363.03 528.3 435.19 474.32 486.06C465.49 494.39 456.1 502.15 446.24 509.29C441.57 512.66 436.8 515.89 431.92 518.97C424.98 523.36 417.84 527.46 410.5 531.22C403.58 534.79 396.5 538.07 389.27 541.05C375.71 546.64 361.61 551.19 347.07 554.61C332.76 557.97 318.02 560.23 302.95 561.29C296.36 561.76 289.7 562 283 562C274.78 562 266.64 561.65 258.6 560.94C243.98 559.68 229.68 557.29 215.79 553.85C202.36 550.53 189.31 546.24 176.73 541.05C169.5 538.07 162.42 534.79 155.5 531.22C148.16 527.46 141.02 523.36 134.08 518.97C129.2 515.89 124.43 512.66 119.76 509.28C109.37 501.77 99.52 493.56 90.27 484.73C37.11 433.93 4 362.33 4 283C4 128.91 128.91 4 283 4C437.09 4 562 128.91 562 283Z" fill="#E4FFC7" stroke="#002733" stroke-width="8" stroke-linecap="round" stroke-linejoin="round"/>
<path d="M410.5 531.22C403.58 534.79 396.5 538.07 389.27 541.05C375.71 546.64 361.61 551.19 347.07 554.61C332.76 557.97 318.02 560.23 302.95 561.29C296.36 561.76 289.7 562 283 562C274.78 562 266.64 561.65 258.6 560.94C243.98 559.68 229.68 557.29 215.79 553.85C202.36 550.53 189.31 546.24 176.73 541.05C169.5 538.07 162.42 534.79 155.5 531.22C157 496.62 168.94 465.17 187.79 440.96C197.76 428.14 209.67 417.35 222.98 409.19C237 400.59 252.57 394.92 269.1 392.87C273.66 392.29 278.27 392 282.95 392H283.05C287.76 392 292.4 392.3 296.97 392.87C311.57 394.69 325.41 399.34 338.09 406.32C353.17 414.62 366.61 426.22 377.71 440.3C396.84 464.6 408.99 496.31 410.5 531.22Z" fill="#A9A7AE" stroke="#002733" stroke-width="8" stroke-linecap="round" stroke-linejoin="round"/>
<mask id="mask0_203_528" style="mask-type:luminance" maskUnits="userSpaceOnUse" x="155" y="392" width="256" height="170">
<path d="M410.5 531.22C403.58 534.79 396.5 538.07 389.27 541.05C375.71 546.64 361.61 551.19 347.07 554.61C332.76 557.97 318.02 560.23 302.95 561.29C296.36 561.76 289.7 562 283 562C274.78 562 266.64 561.65 258.6 560.94C243.98 559.68 229.68 557.29 215.79 553.85C202.36 550.53 189.31 546.24 176.73 541.05C169.5 538.07 162.42 534.79 155.5 531.22C157 496.62 168.94 465.17 187.79 440.96C197.76 428.14 209.67 417.35 222.98 409.19C237 400.59 252.57 394.92 269.1 392.87C273.66 392.29 278.27 392 282.95 392H283.05C287.76 392 292.4 392.3 296.97 392.87C311.57 394.69 325.41 399.34 338.09 406.32C353.17 414.62 366.61 426.22 377.71 440.3C396.84 464.6 408.99 496.31 410.5 531.22Z" fill="white"/>
</mask>
<g mask="url(#mask0_203_528)">
<path d="M347.47 436.03C347.47 436.03 345.45 442.58 342.6 451.79C337.46 468.41 309.95 546.1 301.95 561.29C295.36 561.76 288.7 562 282 562C273.78 562 265.64 561.65 257.6 560.94C251.29 548.43 225.74 471 221.8 452.11C219.9 442.97 218.67 436.67 218.67 436.67L226.98 436.63L332.79 436.1L347.47 436.03Z" fill="#DFDFDF"/>
</g>
<path d="M410.5 531.22C403.58 534.79 396.5 538.07 389.27 541.05C375.71 546.64 361.61 551.19 347.07 554.61C332.76 557.97 318.02 560.23 302.95 561.29C296.36 561.76 289.7 562 283 562C274.78 562 266.64 561.65 258.6 560.94C243.98 559.68 229.68 557.29 215.79 553.85C202.36 550.53 189.31 546.24 176.73 541.05C169.5 538.07 162.42 534.79 155.5 531.22C157 496.62 168.94 465.17 187.79 440.96C197.76 428.14 209.67 417.35 222.98 409.19C237 400.59 252.57 394.92 269.1 392.87C273.66 392.29 278.27 392 282.95 392H283.05C287.76 392 292.4 392.3 296.97 392.87C311.57 394.69 325.41 399.34 338.09 406.32C353.17 414.62 366.61 426.22 377.71 440.3C396.84 464.6 408.99 496.31 410.5 531.22Z" stroke="#002733" stroke-width="8" stroke-linecap="round" stroke-linejoin="round"/>
<path d="M280.834 460.004C161.334 452.226 134.821 418.774 124.001 367.671C116.001 329.887 126.668 304.004 126.668 304.004C126.668 304.004 97.112 298.782 84.668 279.448C82.077 281.029 79.112 286.781 77.001 293.226C48.668 266.337 60.001 234.837 60.001 234.837C60.001 234.837 50.168 236.504 43.168 244.004C41.085 202.421 57.501 192.504 64.64 183.754C59.251 180.254 48.334 181.171 48.334 181.171C48.334 181.171 64.721 121.794 142.001 124.671C183.779 126.227 206.89 170.893 212.334 193.338C284.069 151.005 350.667 193.671 350.667 193.671C350.667 193.671 365.841 119.319 441 124.671C494.833 128.504 515.556 181.56 515.556 181.56L498.556 183.227C498.556 183.227 525.667 204.783 520 241.338C511.333 235.56 504.572 235.114 504.572 235.114C504.572 235.114 509.227 274.503 484.666 292.893C482.671 286.28 481.009 280.553 477.777 277.56C463.11 298.782 436.666 303.004 436.666 303.004C436.666 303.004 453.217 370.532 412.833 417.504C389.333 444.837 314.662 462.206 280.834 460.004Z" fill="#A9A7AE" stroke="#002733" stroke-width="8" stroke-linecap="round" stroke-linejoin="round"/>
<mask id="mask1_203_528" style="mask-type:luminance" maskUnits="userSpaceOnUse" x="42" y="124" width="479" height="337">
<path d="M280.834 460.004C161.334 452.226 134.821 418.774 124.001 367.671C116.001 329.887 126.668 304.004 126.668 304.004C126.668 304.004 97.112 298.782 84.668 279.448C82.077 281.029 79.112 286.781 77.001 293.226C48.668 266.337 60.001 234.837 60.001 234.837C60.001 234.837 50.168 236.504 43.168 244.004C41.085 202.421 57.501 192.504 64.64 183.754C59.251 180.254 48.334 181.171 48.334 181.171C48.334 181.171 64.721 121.794 142.001 124.671C183.779 126.227 206.89 170.893 212.334 193.338C284.069 151.005 350.667 193.671 350.667 193.671C350.667 193.671 365.841 119.319 441 124.671C494.833 128.504 515.556 181.56 515.556 181.56L498.556 183.227C498.556 183.227 525.667 204.783 520 241.338C511.333 235.56 504.572 235.114 504.572 235.114C504.572 235.114 509.227 274.503 484.666 292.893C482.671 286.28 481.009 280.553 477.777 277.56C463.11 298.782 436.666 303.004 436.666 303.004C436.666 303.004 453.217 370.532 412.833 417.504C389.333 444.837 314.662 462.206 280.834 460.004Z" fill="white"/>
</mask>
<g mask="url(#mask1_203_528)">
<path d="M208.834 335.004C217.118 335.004 223.834 328.288 223.834 320.004C223.834 311.72 217.118 305.004 208.834 305.004C200.55 305.004 193.834 311.72 193.834 320.004C193.834 328.288 200.55 335.004 208.834 335.004Z" fill="#002733"/>
<path d="M354.334 335.004C362.618 335.004 369.334 328.288 369.334 320.004C369.334 311.72 362.618 305.004 354.334 305.004C346.05 305.004 339.334 311.72 339.334 320.004C339.334 328.288 346.05 335.004 354.334 335.004Z" fill="#002733"/>
<path d="M281.875 467.171C313.953 467.171 339.958 443.666 339.958 414.671C339.958 385.676 313.953 362.171 281.875 362.171C249.797 362.171 223.792 385.676 223.792 414.671C223.792 443.666 249.797 467.171 281.875 467.171Z" fill="#DFDFDF"/>
<path d="M324.552 406.563C323.527 409.104 322.041 411.41 320.198 413.377C316.184 417.661 310.475 420.337 304.142 420.337C291.992 420.337 281.038 409.226 281.927 392.004" stroke="#002733" stroke-width="8" stroke-linecap="round" stroke-linejoin="round"/>
<path d="M239.199 406.563C240.224 409.104 241.71 411.41 243.553 413.377C247.567 417.661 253.275 420.337 259.609 420.337C271.759 420.337 282.713 409.226 281.825 392.004" stroke="#002733" stroke-width="8" stroke-linecap="round" stroke-linejoin="round"/>
<path d="M320.482 351.671C320.482 381.187 303.22 395.115 281.926 395.115C260.632 395.115 243.37 381.187 243.37 351.671C243.37 322.155 260.632 298.226 281.926 298.226C303.22 298.226 320.482 322.154 320.482 351.671Z" fill="#3D4140" stroke="#002733" stroke-width="8" stroke-linecap="round" stroke-linejoin="round"/>
</g>
<path d="M280.834 460.004C161.334 452.226 134.821 418.774 124.001 367.671C116.001 329.887 126.668 304.004 126.668 304.004C126.668 304.004 97.112 298.782 84.668 279.448C82.077 281.029 79.112 286.781 77.001 293.226C48.668 266.337 60.001 234.837 60.001 234.837C60.001 234.837 50.168 236.504 43.168 244.004C41.085 202.421 57.501 192.504 64.64 183.754C59.251 180.254 48.334 181.171 48.334 181.171C48.334 181.171 64.721 121.794 142.001 124.671C183.779 126.227 206.89 170.893 212.334 193.338C284.069 151.005 350.667 193.671 350.667 193.671C350.667 193.671 365.841 119.319 441 124.671C494.833 128.504 515.556 181.56 515.556 181.56L498.556 183.227C498.556 183.227 525.667 204.783 520 241.338C511.333 235.56 504.572 235.114 504.572 235.114C504.572 235.114 509.227 274.503 484.666 292.893C482.671 286.28 481.009 280.553 477.777 277.56C463.11 298.782 436.666 303.004 436.666 303.004C436.666 303.004 453.217 370.532 412.833 417.504C389.333 444.837 314.662 462.206 280.834 460.004Z" stroke="#002733" stroke-width="8" stroke-linecap="round" stroke-linejoin="round"/>
<path d="M180.556 214.337C160.223 235.004 153.667 269.893 136.445 271.559C113.709 271.559 87.7778 249.389 87.7778 223.892C87.7778 198.395 107.373 173.892 130 171.67C154.889 169.226 180.556 188.839 180.556 214.337Z" fill="#DFDFDF"/>
<path d="M384 215.337C404.333 236.004 408.5 267.17 429.333 268.337C452.069 268.337 470.5 247.668 470.5 222.17C470.5 196.672 454.236 171.67 431.5 171.67C408.764 171.67 384 189.839 384 215.337Z" fill="#DFDFDF"/>
<path d="M126.667 304.004C135.223 269.226 167.206 233.285 182.445 214.226C179.887 193.955 162.001 157.95 116.001 175.061" stroke="#002733" stroke-width="8" stroke-linecap="round" stroke-linejoin="round"/>
<path d="M436.786 303.709C428.23 268.931 396.247 232.99 381.008 213.931C383.567 193.66 401.452 157.655 447.452 174.766" stroke="#002733" stroke-width="8" stroke-linecap="round" stroke-linejoin="round"/>
</svg>
