<svg width="160" height="51" viewBox="0 0 160 51" fill="none" xmlns="http://www.w3.org/2000/svg">
<path d="M13.788 28.432C6.516 28.432 1.224 23.248 1.224 16.012C1.224 8.776 6.516 3.592 13.788 3.592C21.024 3.592 26.316 8.776 26.316 16.012C26.316 23.248 21.024 28.432 13.788 28.432ZM13.788 23.896C18.216 23.896 21.06 20.476 21.06 16.012C21.06 11.512 18.216 8.128 13.788 8.128C9.324 8.128 6.48 11.512 6.48 16.012C6.48 20.476 9.324 23.896 13.788 23.896ZM46.1033 28H41.5313V25.804C40.3433 27.1 38.2553 28.432 35.4113 28.432C31.5953 28.432 29.7953 26.344 29.7953 22.96V10.612H34.3673V21.16C34.3673 23.572 35.6273 24.364 37.5713 24.364C39.3353 24.364 40.7393 23.392 41.5313 22.384V10.612H46.1033V28ZM55.215 28H50.643V10.612H55.215V12.952C56.475 11.44 58.599 10.18 60.759 10.18V14.644C60.435 14.572 60.039 14.536 59.499 14.536C57.987 14.536 55.971 15.4 55.215 16.516V28ZM83.6618 28H78.5138V8.488H71.4938V3.988H90.6458V8.488H83.6618V28ZM95.9259 28H91.3539V10.612H95.9259V12.952C97.1859 11.44 99.3099 10.18 101.47 10.18V14.644C101.146 14.572 100.75 14.536 100.21 14.536C98.6979 14.536 96.6819 15.4 95.9259 16.516V28ZM112.499 28.432C107.207 28.432 103.211 24.868 103.211 19.288C103.211 14.248 106.955 10.18 112.211 10.18C117.431 10.18 120.923 14.068 120.923 19.72V20.8H107.999C108.323 22.924 110.051 24.688 113.003 24.688C114.479 24.688 116.495 24.076 117.611 22.996L119.663 26.02C117.935 27.604 115.199 28.432 112.499 28.432ZM116.531 17.632C116.387 15.976 115.235 13.924 112.211 13.924C109.367 13.924 108.143 15.904 107.963 17.632H116.531ZM132.397 28.432C127.105 28.432 123.109 24.868 123.109 19.288C123.109 14.248 126.853 10.18 132.109 10.18C137.329 10.18 140.821 14.068 140.821 19.72V20.8H127.897C128.221 22.924 129.949 24.688 132.901 24.688C134.377 24.688 136.393 24.076 137.509 22.996L139.561 26.02C137.833 27.604 135.097 28.432 132.397 28.432ZM136.429 17.632C136.285 15.976 135.133 13.924 132.109 13.924C129.265 13.924 128.041 15.904 127.861 17.632H136.429ZM150.387 28.432C147.363 28.432 144.447 27.424 142.611 25.732L144.591 22.42C145.887 23.644 148.443 24.832 150.603 24.832C152.583 24.832 153.519 24.076 153.519 22.996C153.519 20.152 143.223 22.492 143.223 15.652C143.223 12.736 145.743 10.18 150.351 10.18C153.267 10.18 155.607 11.188 157.335 12.556L155.499 15.796C154.455 14.716 152.475 13.78 150.351 13.78C148.695 13.78 147.615 14.5 147.615 15.472C147.615 18.028 157.947 15.868 157.947 22.888C157.947 26.092 155.211 28.432 150.387 28.432Z" fill="white"/>
<path d="M9.07 48H1.99V37.995H9.07V39.87H4.12V41.97H8.965V43.845H4.12V46.125H9.07V48ZM18.0401 48H16.1201V47.07C15.5501 47.79 14.7701 48.18 13.8851 48.18C12.0701 48.18 10.6751 46.8 10.6751 44.37C10.6751 42.015 12.0401 40.575 13.8851 40.575C14.7401 40.575 15.5501 40.935 16.1201 41.685V37.995H18.0401V48ZM14.4851 46.485C15.1151 46.485 15.8051 46.14 16.1201 45.66V43.095C15.8051 42.615 15.1151 42.27 14.4851 42.27C13.3901 42.27 12.6401 43.125 12.6401 44.37C12.6401 45.63 13.3901 46.485 14.4851 46.485ZM27.1742 48H25.2692V47.085C24.7742 47.625 23.9042 48.18 22.7192 48.18C21.1292 48.18 20.3792 47.31 20.3792 45.9V40.755H22.2842V45.15C22.2842 46.155 22.8092 46.485 23.6192 46.485C24.3542 46.485 24.9392 46.08 25.2692 45.66V40.755H27.1742V48ZM32.8907 48.18C30.6707 48.18 29.0507 46.605 29.0507 44.37C29.0507 42.15 30.6707 40.575 32.8907 40.575C34.3757 40.575 35.2757 41.22 35.7557 41.88L34.5107 43.05C34.1657 42.54 33.6407 42.27 32.9807 42.27C31.8257 42.27 31.0157 43.11 31.0157 44.37C31.0157 45.63 31.8257 46.485 32.9807 46.485C33.6407 46.485 34.1657 46.185 34.5107 45.69L35.7557 46.86C35.2757 47.52 34.3757 48.18 32.8907 48.18ZM43.7211 48H41.8011V47.235C41.3061 47.835 40.4511 48.18 39.5061 48.18C38.3511 48.18 37.0011 47.4 37.0011 45.78C37.0011 44.07 38.3511 43.44 39.5061 43.44C40.4811 43.44 41.3211 43.755 41.8011 44.325V43.41C41.8011 42.675 41.1711 42.195 40.2111 42.195C39.4461 42.195 38.7261 42.495 38.1261 43.05L37.3761 41.715C38.2611 40.92 39.4011 40.575 40.5411 40.575C42.2061 40.575 43.7211 41.235 43.7211 43.32V48ZM40.2711 46.89C40.8861 46.89 41.4861 46.68 41.8011 46.26V45.36C41.4861 44.94 40.8861 44.715 40.2711 44.715C39.5211 44.715 38.9061 45.12 38.9061 45.81C38.9061 46.5 39.5211 46.89 40.2711 46.89ZM48.4756 48.18C47.1406 48.18 46.4356 47.49 46.4356 46.185V42.42H45.2356V40.755H46.4356V38.775H48.3406V40.755H49.8106V42.42H48.3406V45.675C48.3406 46.14 48.5806 46.485 49.0006 46.485C49.2856 46.485 49.5556 46.38 49.6606 46.26L50.0656 47.715C49.7806 47.97 49.2706 48.18 48.4756 48.18ZM52.5089 39.975C51.8939 39.975 51.3839 39.465 51.3839 38.835C51.3839 38.205 51.8939 37.71 52.5089 37.71C53.1389 37.71 53.6489 38.205 53.6489 38.835C53.6489 39.465 53.1389 39.975 52.5089 39.975ZM53.4689 48H51.5639V40.755H53.4689V48ZM59.1679 48.18C56.7829 48.18 55.3429 46.425 55.3429 44.37C55.3429 42.315 56.7829 40.575 59.1679 40.575C61.5679 40.575 63.0079 42.315 63.0079 44.37C63.0079 46.425 61.5679 48.18 59.1679 48.18ZM59.1679 46.485C60.3679 46.485 61.0279 45.51 61.0279 44.37C61.0279 43.245 60.3679 42.27 59.1679 42.27C57.9829 42.27 57.3229 43.245 57.3229 44.37C57.3229 45.51 57.9829 46.485 59.1679 46.485ZM71.6958 48H69.7758V43.62C69.7758 42.615 69.2508 42.27 68.4408 42.27C67.6908 42.27 67.1208 42.69 66.7908 43.11V48H64.8858V40.755H66.7908V41.685C67.2558 41.145 68.1558 40.575 69.3258 40.575C70.9308 40.575 71.6958 41.475 71.6958 42.885V48ZM80.4999 48H78.3699V37.995H85.4499V39.87H80.4999V41.97H85.3449V43.845H80.4999V48ZM90.7042 48.18C88.3192 48.18 86.8792 46.425 86.8792 44.37C86.8792 42.315 88.3192 40.575 90.7042 40.575C93.1042 40.575 94.5442 42.315 94.5442 44.37C94.5442 46.425 93.1042 48.18 90.7042 48.18ZM90.7042 46.485C91.9042 46.485 92.5642 45.51 92.5642 44.37C92.5642 43.245 91.9042 42.27 90.7042 42.27C89.5192 42.27 88.8592 43.245 88.8592 44.37C88.8592 45.51 89.5192 46.485 90.7042 46.485ZM103.217 48H101.312V47.085C100.817 47.625 99.9472 48.18 98.7622 48.18C97.1722 48.18 96.4221 47.31 96.4221 45.9V40.755H98.3272V45.15C98.3272 46.155 98.8522 46.485 99.6622 46.485C100.397 46.485 100.982 46.08 101.312 45.66V40.755H103.217V48ZM112.369 48H110.449V43.62C110.449 42.615 109.924 42.27 109.114 42.27C108.364 42.27 107.794 42.69 107.464 43.11V48H105.559V40.755H107.464V41.685C107.929 41.145 108.829 40.575 109.999 40.575C111.604 40.575 112.369 41.475 112.369 42.885V48ZM121.595 48H119.675V47.07C119.105 47.79 118.325 48.18 117.44 48.18C115.625 48.18 114.23 46.8 114.23 44.37C114.23 42.015 115.595 40.575 117.44 40.575C118.295 40.575 119.105 40.935 119.675 41.685V37.995H121.595V48ZM118.04 46.485C118.67 46.485 119.36 46.14 119.675 45.66V43.095C119.36 42.615 118.67 42.27 118.04 42.27C116.945 42.27 116.195 43.125 116.195 44.37C116.195 45.63 116.945 46.485 118.04 46.485ZM130.204 48H128.284V47.235C127.789 47.835 126.934 48.18 125.989 48.18C124.834 48.18 123.484 47.4 123.484 45.78C123.484 44.07 124.834 43.44 125.989 43.44C126.964 43.44 127.804 43.755 128.284 44.325V43.41C128.284 42.675 127.654 42.195 126.694 42.195C125.929 42.195 125.209 42.495 124.609 43.05L123.859 41.715C124.744 40.92 125.884 40.575 127.024 40.575C128.689 40.575 130.204 41.235 130.204 43.32V48ZM126.754 46.89C127.369 46.89 127.969 46.68 128.284 46.26V45.36C127.969 44.94 127.369 44.715 126.754 44.715C126.004 44.715 125.389 45.12 125.389 45.81C125.389 46.5 126.004 46.89 126.754 46.89ZM134.959 48.18C133.624 48.18 132.919 47.49 132.919 46.185V42.42H131.719V40.755H132.919V38.775H134.824V40.755H136.294V42.42H134.824V45.675C134.824 46.14 135.064 46.485 135.484 46.485C135.769 46.485 136.039 46.38 136.144 46.26L136.549 47.715C136.264 47.97 135.754 48.18 134.959 48.18ZM138.992 39.975C138.377 39.975 137.867 39.465 137.867 38.835C137.867 38.205 138.377 37.71 138.992 37.71C139.622 37.71 140.132 38.205 140.132 38.835C140.132 39.465 139.622 39.975 138.992 39.975ZM139.952 48H138.047V40.755H139.952V48ZM145.651 48.18C143.266 48.18 141.826 46.425 141.826 44.37C141.826 42.315 143.266 40.575 145.651 40.575C148.051 40.575 149.491 42.315 149.491 44.37C149.491 46.425 148.051 48.18 145.651 48.18ZM145.651 46.485C146.851 46.485 147.511 45.51 147.511 44.37C147.511 43.245 146.851 42.27 145.651 42.27C144.466 42.27 143.806 43.245 143.806 44.37C143.806 45.51 144.466 46.485 145.651 46.485ZM158.179 48H156.259V43.62C156.259 42.615 155.734 42.27 154.924 42.27C154.174 42.27 153.604 42.69 153.274 43.11V48H151.369V40.755H153.274V41.685C153.739 41.145 154.639 40.575 155.809 40.575C157.414 40.575 158.179 41.475 158.179 42.885V48Z" fill="white"/>
</svg>
