<svg width="87" height="86" viewBox="0 0 87 86" fill="none" xmlns="http://www.w3.org/2000/svg">
<path d="M73.4784 57.9849C72.1381 57.9849 70.7829 57.5628 69.6213 56.7034L43.4255 37.1493L17.3787 56.5527C14.4747 58.7086 10.4091 58.0754 8.26455 55.1506C6.13493 52.2106 6.76042 48.0948 9.64955 45.9238L37.4984 25.1936C40.9087 22.2688 45.9424 22.2688 49.3527 25.1936L77.3504 46.0896C80.2396 48.2455 80.8651 52.3765 78.7355 55.3164C77.4547 57.0653 75.4889 58 73.4933 58L73.4784 57.9849Z" fill="white"/>
<path d="M21.4938 29C19.5067 29 17.5345 28.0701 16.2592 26.3302C14.1386 23.4055 14.7614 19.3108 17.6383 17.151L37.7464 2.18231C41.1422 -0.727438 46.1544 -0.727438 49.5502 2.18231L69.3617 16.956C72.2386 19.1008 72.8614 23.2105 70.7408 26.1353C68.6203 29.045 64.5571 29.6749 61.6655 27.5301L43.6335 14.0913L25.3048 27.7251C24.1482 28.58 22.7987 29 21.4641 29H21.4938Z" fill="white"/>
<path d="M84.3472 74.0957L49.4209 48.1925C45.9926 45.2692 40.9475 45.2692 37.5043 48.1925L2.66779 73.9902C-0.251474 76.145 -0.865279 80.2739 1.27551 83.2123C3.4163 86.1507 7.51825 86.7685 10.4375 84.6137L36.9654 64.964V79.4149C36.9654 83.0616 39.8996 86 43.5075 86C47.1154 86 50.0496 83.0465 50.0496 79.4149V65.0394L76.5775 84.7191C77.7452 85.5931 79.1075 86 80.4549 86C82.4609 86 84.452 85.0657 85.7245 83.3178C87.8653 80.3944 87.2515 76.2656 84.3322 74.0957H84.3472Z" fill="white"/>
</svg>
