<svg width="566" height="566" viewBox="0 0 566 566" fill="none" xmlns="http://www.w3.org/2000/svg">
<path d="M562 283C562 363.03 528.3 435.19 474.32 486.06C465.49 494.39 456.1 502.15 446.24 509.29C441.57 512.66 436.8 515.89 431.92 518.97C418.45 527.5 404.18 534.9 389.27 541.05C375.71 546.64 361.61 551.19 347.07 554.61C326.5 559.44 305.05 562 283 562C259.83 562 237.32 559.18 215.79 553.85C202.36 550.53 189.31 546.24 176.73 541.05C161.82 534.9 147.55 527.5 134.08 518.97C129.2 515.89 124.43 512.66 119.76 509.28C109.37 501.77 99.52 493.56 90.27 484.73C37.11 433.93 4 362.33 4 283C4 128.91 128.91 4 283 4C437.09 4 562 128.91 562 283Z" fill="#F8C0BC" stroke="#002733" stroke-width="8" stroke-linecap="round" stroke-linejoin="round"/>
<path d="M505.199 265.556C505.27 232.857 478.82 206.292 446.121 206.22C413.422 206.149 386.857 232.599 386.785 265.298C386.714 297.997 413.164 324.563 445.863 324.634C478.562 324.705 505.128 298.255 505.199 265.556Z" stroke="#002733" stroke-width="8" stroke-linecap="round" stroke-linejoin="round"/>
<path d="M179.207 265.593C179.297 232.894 152.863 206.313 120.164 206.223C87.4647 206.132 60.8838 232.567 60.7936 265.266C60.7035 297.965 87.1381 324.546 119.837 324.636C152.536 324.726 179.117 298.292 179.207 265.593Z" stroke="#002733" stroke-width="8" stroke-linecap="round" stroke-linejoin="round"/>
<path d="M505.199 265.556C505.27 232.857 478.82 206.292 446.121 206.22C413.422 206.149 386.857 232.599 386.785 265.298C386.714 297.997 413.164 324.563 445.863 324.634C478.562 324.705 505.128 298.255 505.199 265.556Z" fill="#EAB485" stroke="#002733" stroke-width="8" stroke-linecap="round" stroke-linejoin="round"/>
<path d="M418.436 265.429C418.436 250.206 430.777 237.866 446 237.866C461.223 237.866 473.564 250.207 473.564 265.429" stroke="#002733" stroke-width="8" stroke-linecap="round" stroke-linejoin="round"/>
<path d="M179.207 265.593C179.297 232.894 152.863 206.313 120.164 206.223C87.4647 206.132 60.8838 232.567 60.7936 265.266C60.7035 297.965 87.1381 324.546 119.837 324.636C152.536 324.726 179.117 298.292 179.207 265.593Z" fill="#EAB485" stroke="#002733" stroke-width="8" stroke-linecap="round" stroke-linejoin="round"/>
<path d="M92.436 265.429C92.436 250.206 104.777 237.866 119.999 237.866C135.221 237.866 147.562 250.207 147.562 265.429" stroke="#002733" stroke-width="8" stroke-linecap="round" stroke-linejoin="round"/>
<path d="M386.66 390.92C382.16 387.13 377.46 383.58 372.57 380.3C346.84 362.96 316.06 352.89 283 352.89C249.94 352.89 219.16 362.96 193.43 380.3C188.54 383.58 183.84 387.13 179.34 390.92C145.48 419.43 122.96 461.62 119.76 509.28C124.43 512.66 129.2 515.89 134.08 518.97C147.55 527.5 161.82 534.9 176.73 541.05C189.31 546.24 202.36 550.53 215.79 553.85C237.32 559.18 259.83 562 283 562C305.05 562 326.5 559.44 347.07 554.61C361.61 551.19 375.71 546.64 389.27 541.05C404.18 534.9 418.45 527.5 431.92 518.97C436.8 515.89 441.57 512.66 446.24 509.29C443.05 461.63 420.52 419.44 386.66 390.92Z" fill="#835436" stroke="#002733" stroke-width="8" stroke-linecap="round" stroke-linejoin="round"/>
<path d="M176.73 541.05C177.06 528.21 178.35 512.18 183.39 493.78" stroke="#002733" stroke-width="8" stroke-linecap="round" stroke-linejoin="round"/>
<path d="M382.61 493.78C387.65 512.18 388.94 528.21 389.27 541.05" stroke="#002733" stroke-width="8" stroke-linecap="round" stroke-linejoin="round"/>
<path d="M283 430C369.709 430 440 359.709 440 273C440 186.291 369.709 116 283 116C196.291 116 126 186.291 126 273C126 359.709 196.291 430 283 430Z" fill="#835436" stroke="#002733" stroke-width="8" stroke-linecap="round" stroke-linejoin="round"/>
<path d="M403.888 265.429C403.888 227.191 373.814 196.193 336.716 196.193C314.754 196.193 295.257 207.059 283 223.857C270.744 207.059 251.246 196.193 229.284 196.193C192.186 196.193 162.112 227.191 162.112 265.429C162.112 292.745 177.464 316.358 199.756 327.623C194.56 338.512 191.666 350.602 191.666 363.333C191.666 411.198 232.557 450 282.999 450C333.441 450 374.332 411.198 374.332 363.333C374.332 350.602 371.439 338.512 366.243 327.623C388.535 316.358 403.888 292.745 403.888 265.429Z" fill="#EFB587" stroke="#002733" stroke-width="8" stroke-linecap="round" stroke-linejoin="round"/>
<path d="M226.75 288C235.034 288 241.75 281.284 241.75 273C241.75 264.716 235.034 258 226.75 258C218.465 258 211.75 264.716 211.75 273C211.75 281.284 218.465 288 226.75 288Z" fill="#002733"/>
<path d="M339.25 288C347.534 288 354.25 281.284 354.25 273C354.25 264.716 347.534 258 339.25 258C330.965 258 324.25 264.716 324.25 273C324.25 281.284 330.965 288 339.25 288Z" fill="#002733"/>
<path d="M255.25 312.167C270.194 313.445 271.75 326.167 271.75 326.167" stroke="#002733" stroke-width="8" stroke-linecap="round" stroke-linejoin="round"/>
<path d="M310.75 312.167C295.806 313.445 294.25 326.167 294.25 326.167" stroke="#002733" stroke-width="8" stroke-linecap="round" stroke-linejoin="round"/>
<path d="M216.666 374.222C281.499 420 346.888 374.222 346.888 374.222" stroke="#002733" stroke-width="8" stroke-linecap="round" stroke-linejoin="round"/>
<path d="M348.33 540.5C348.33 545.33 347.9 550.05 347.07 554.61C326.5 559.44 305.05 562 283 562C259.83 562 237.32 559.18 215.79 553.85C215.05 549.52 214.67 545.06 214.67 540.5C214.67 500.28 244.59 467.67 281.5 467.67C318.41 467.67 348.33 500.28 348.33 540.5Z" fill="#EFB587" stroke="#002733" stroke-width="8" stroke-linecap="round" stroke-linejoin="round"/>
</svg>
