<svg width="566" height="566" viewBox="0 0 566 566" fill="none" xmlns="http://www.w3.org/2000/svg">
<path d="M562 283C562 355.44 534.39 421.44 489.12 471.03C484.37 476.22 479.44 481.24 474.32 486.06C472.79 487.51 471.24 488.94 469.67 490.34C462.21 497.07 454.39 503.39 446.24 509.29C441.79 512.5 437.25 515.59 432.6 518.53C432.38 518.68 432.15 518.83 431.92 518.97C418.45 527.5 404.18 534.9 389.27 541.05C375.71 546.64 361.61 551.19 347.07 554.61C326.5 559.44 305.05 562 283 562C259.83 562 237.32 559.18 215.79 553.85C202.36 550.53 189.31 546.24 176.73 541.05C161.82 534.9 147.55 527.5 134.08 518.97C133.85 518.83 133.62 518.68 133.4 518.53C128.75 515.59 124.21 512.5 119.76 509.28C114.12 505.2 108.63 500.92 103.32 496.42C98.8501 492.67 94.5 488.76 90.27 484.73C85.65 480.32 81.19 475.75 76.88 471.03C31.61 421.43 4 355.44 4 283C4 128.91 128.91 4 283 4C437.09 4 562 128.91 562 283Z" fill="#A6D8A2" stroke="#002733" stroke-width="8" stroke-linecap="round" stroke-linejoin="round"/>
<path d="M283.004 293.585C377.384 293.585 453.893 258.433 453.893 215.07C453.893 171.707 377.384 136.555 283.004 136.555C188.625 136.555 112.115 171.707 112.115 215.07C112.115 258.433 188.625 293.585 283.004 293.585Z" fill="#97704D" stroke="#002733" stroke-width="8" stroke-linecap="round" stroke-linejoin="round"/>
<path d="M466.354 490.34C458.894 497.07 451.074 503.39 442.924 509.29C438.474 512.5 433.934 515.59 429.284 518.53C429.064 518.68 428.834 518.83 428.604 518.97C415.134 527.5 400.864 534.9 385.954 541.05C372.394 546.64 358.294 551.19 343.754 554.61C323.184 559.44 301.734 562 279.684 562C256.514 562 234.004 559.18 212.474 553.85C199.044 550.53 185.994 546.24 173.414 541.05C158.504 534.9 144.234 527.5 130.764 518.97C130.534 518.83 130.304 518.68 130.084 518.53C125.434 515.59 120.894 512.5 116.444 509.28C110.804 505.2 105.314 500.92 100.004 496.42C97.744 457.4 96.93 378.06 98.58 346.11C105.78 322.89 100.444 249.04 106.464 212C114.024 165.5 102.354 154.67 109.524 123.83C120.854 131.61 135.964 142.26 146.184 147.5C151.904 150.43 159.664 153.01 168.354 155.5C192.594 162.47 223.954 168.8 237.684 180.33C266.254 204.32 276.534 225.09 279.784 239.59C279.914 240.14 280.024 240.66 280.114 241.18C282.594 253.88 279.684 261.33 279.684 261.33H286.324C286.324 261.33 277.044 237.56 305.694 202.82C311.534 195.74 318.944 188.21 328.324 180.33C341.324 169.41 370.144 163.16 393.744 156.61C403.994 153.76 413.264 150.86 419.824 147.5C430.044 142.26 445.154 131.61 456.484 123.83C463.654 154.67 451.984 165.5 459.544 212C465.564 249.04 460.22 322.89 467.42 346.11C467.57 349.05 470.994 352.38 471.054 356.06C471.614 390.35 468.434 453.6 466.354 490.34Z" fill="#C59D72" stroke="#002733" stroke-width="8" stroke-linecap="round" stroke-linejoin="round"/>
<path d="M359.225 185.221C323.794 185.221 293.735 208.138 283.004 239.949C272.274 208.137 242.215 185.221 206.783 185.221C162.355 185.221 126.339 221.237 126.339 265.665C126.339 310.093 162.355 346.109 206.783 346.109C242.214 346.109 272.273 323.192 283.004 291.381C293.734 323.192 323.793 346.109 359.225 346.109C403.653 346.109 439.669 310.093 439.669 265.665C439.669 221.237 403.653 185.221 359.225 185.221Z" fill="#F8E7BF" stroke="#002733" stroke-width="8" stroke-linecap="round" stroke-linejoin="round"/>
<path d="M306.337 308.999C306.337 321.886 283.004 354.332 283.004 354.332C283.004 354.332 259.671 321.885 259.671 308.999C259.671 296.113 270.118 285.666 283.004 285.666C295.89 285.666 306.337 296.113 306.337 308.999Z" fill="#EBBD32" stroke="#002733" stroke-width="8" stroke-linecap="round" stroke-linejoin="round"/>
<path d="M140.4 459.33C140.4 478.98 137.58 499.26 133.4 518.53C128.75 515.59 124.21 512.5 119.76 509.28C114.12 505.2 108.63 500.92 103.32 496.42C98.8501 492.67 94.5001 488.76 90.2701 484.73C85.6501 480.32 81.19 475.75 76.88 471.03C73.69 364.78 98.5801 346.11 98.5801 346.11C98.5801 346.11 140.4 383.67 140.4 459.33Z" fill="#896241" stroke="#002733" stroke-width="8" stroke-linecap="round" stroke-linejoin="round"/>
<path d="M489.12 471.03C484.37 476.22 479.44 481.24 474.32 486.06C472.79 487.51 471.24 488.94 469.67 490.34C462.21 497.07 454.39 503.39 446.24 509.29C441.79 512.5 437.25 515.59 432.6 518.53C428.43 499.26 425.61 478.98 425.61 459.33C425.61 383.67 467.42 346.11 467.42 346.11C467.42 346.11 470.51 348.42 474.37 356.06C481.47 370.13 491.19 402.2 489.12 471.03Z" fill="#896241" stroke="#002733" stroke-width="8" stroke-linecap="round" stroke-linejoin="round"/>
<path d="M231.18 448.666C231.18 458.853 221.691 467.11 209.986 467.11C198.281 467.11 188.792 458.852 188.792 448.666" stroke="#002733" stroke-width="8" stroke-linecap="round" stroke-linejoin="round"/>
<path d="M305.871 448.666C305.871 458.853 296.382 467.11 284.677 467.11C272.972 467.11 263.483 458.852 263.483 448.666" stroke="#002733" stroke-width="8" stroke-linecap="round" stroke-linejoin="round"/>
<path d="M380.563 448.666C380.563 458.853 371.074 467.11 359.369 467.11C347.664 467.11 338.175 458.852 338.175 448.666" stroke="#002733" stroke-width="8" stroke-linecap="round" stroke-linejoin="round"/>
<path d="M268.526 500.38C268.526 510.567 259.037 518.824 247.332 518.824C235.627 518.824 226.138 510.566 226.138 500.38" stroke="#002733" stroke-width="8" stroke-linecap="round" stroke-linejoin="round"/>
<path d="M343.217 500.38C343.217 510.567 333.728 518.824 322.023 518.824C310.318 518.824 300.829 510.566 300.829 500.38" stroke="#002733" stroke-width="8" stroke-linecap="round" stroke-linejoin="round"/>
<path d="M224.311 282.976C233.871 273.416 233.871 257.916 224.311 248.356C214.751 238.796 199.251 238.796 189.691 248.356C180.131 257.916 180.131 273.416 189.691 282.976C199.251 292.536 214.751 292.536 224.311 282.976Z" fill="#002733"/>
<path d="M196.5 266.832C202.299 266.832 207 262.131 207 256.332C207 250.533 202.299 245.832 196.5 245.832C190.701 245.832 186 250.533 186 256.332C186 262.131 190.701 266.832 196.5 266.832Z" fill="#FBE5C1"/>
<path d="M376.311 282.976C385.871 273.416 385.871 257.916 376.311 248.356C366.751 238.796 351.251 238.796 341.691 248.356C332.131 257.916 332.131 273.416 341.691 282.976C351.251 292.536 366.751 292.536 376.311 282.976Z" fill="#002733"/>
<path d="M348.5 266.832C354.299 266.832 359 262.131 359 256.332C359 250.533 354.299 245.832 348.5 245.832C342.701 245.832 338 250.533 338 256.332C338 262.131 342.701 266.832 348.5 266.832Z" fill="#FBE5C1"/>
</svg>
