<svg width="566" height="566" viewBox="0 0 566 566" fill="none" xmlns="http://www.w3.org/2000/svg">
<path d="M562 283C562 353.03 536.19 417.05 493.56 466.04C469.01 494.26 438.88 517.5 404.88 534.04C368.06 551.95 326.7 562 283 562C239.3 562 197.93 551.95 161.11 534.04C127.11 517.5 96.98 494.26 72.44 466.03C29.81 417.04 4 353.03 4 283C4 128.92 128.91 4 283 4C437.09 4 562 128.92 562 283Z" fill="#FBDA82" stroke="#002733" stroke-width="8" stroke-linecap="round" stroke-linejoin="round"/>
<path d="M201.83 144.338C201.83 173.057 181.716 199.171 152.997 199.171C124.278 199.171 98.7319 178.714 98.7319 149.995C98.7319 121.276 122.611 92.338 151.33 92.338C180.049 92.338 201.83 115.619 201.83 144.338Z" fill="#3C3F41" stroke="#002733" stroke-width="8" stroke-linecap="round" stroke-linejoin="round"/>
<path d="M467.997 146.479C467.997 175.198 446.375 200.62 417.656 200.62C388.937 200.62 363.391 177.557 363.391 148.838C363.391 120.119 382.611 92.338 411.33 92.338C442.163 92.338 467.997 117.76 467.997 146.479Z" fill="#3C3F41" stroke="#002733" stroke-width="8" stroke-linecap="round" stroke-linejoin="round"/>
<path d="M438.14 383.03C417.23 363.17 392.52 347.28 365.2 336.58C360.92 334.9 356.59 333.35 352.19 331.94C331.6 325.3 309.72 321.54 287.02 321.15H286.95C285.64 321.12 284.32 321.11 283 321.11C281.67 321.11 280.34 321.12 279.01 321.15C256.27 321.54 234.41 325.3 213.83 331.93C209.41 333.35 205.06 334.9 200.78 336.58C173.91 347.11 149.55 362.66 128.86 382.08C104.19 405.22 84.7299 433.85 72.4399 466.03C96.9799 494.26 127.11 517.5 161.11 534.04C197.93 551.95 239.29 562 283 562C326.71 562 368.06 551.95 404.88 534.04C438.88 517.5 469.01 494.26 493.56 466.04C481.43 434.3 462.34 406.01 438.14 383.03Z" fill="#3C3F41" stroke="#002733" stroke-width="8" stroke-linecap="round" stroke-linejoin="round"/>
<path d="M404.88 534.04C368.06 551.95 326.7 562 283 562C239.3 562 197.93 551.95 161.11 534.04C189.63 506.15 233.63 488.27 283 488.27C332.37 488.27 376.36 506.15 404.88 534.04Z" fill="#FDFDFD" stroke="#002733" stroke-width="8" stroke-linecap="round" stroke-linejoin="round"/>
<path d="M464.663 306.671C464.663 400.007 369.153 448.004 282.996 448.004C196.839 448.004 104.663 401.34 104.663 308.004C104.663 214.668 169.33 110.004 282.996 110.004C395.996 110.004 464.663 213.335 464.663 306.671Z" fill="#FDFDFD" stroke="#002733" stroke-width="8" stroke-linecap="round" stroke-linejoin="round"/>
<path d="M162.207 284.005C170.54 246.005 205.88 225.624 225.874 226.172C250.207 226.839 261.177 247.416 256.207 266.339C253.049 278.364 242.843 281.338 235.457 293.006C223.18 312.399 229.707 321.111 214.726 331.338C192.304 346.645 152.131 329.955 162.207 284.005Z" fill="#3C3F41" stroke="#002733" stroke-width="8" stroke-linecap="round" stroke-linejoin="round"/>
<path d="M403.787 284.005C395.454 246.005 360.114 225.624 340.12 226.172C315.787 226.839 304.817 247.416 309.787 266.339C312.945 278.364 323.151 281.338 330.537 293.006C342.814 312.399 336.287 321.111 351.268 331.338C373.69 346.645 413.863 329.955 403.787 284.005Z" fill="#3C3F41" stroke="#002733" stroke-width="8" stroke-linecap="round" stroke-linejoin="round"/>
<path d="M220.247 283.005C228.531 283.005 235.247 276.289 235.247 268.005C235.247 259.721 228.531 253.005 220.247 253.005C211.963 253.005 205.247 259.721 205.247 268.005C205.247 276.289 211.963 283.005 220.247 283.005Z" fill="#002733"/>
<path d="M345.747 283.005C354.031 283.005 360.747 276.289 360.747 268.005C360.747 259.721 354.031 253.005 345.747 253.005C337.463 253.005 330.747 259.721 330.747 268.005C330.747 276.289 337.463 283.005 345.747 283.005Z" fill="#002733"/>
<path d="M282.997 361.171C297.339 361.171 322.492 338.838 315.321 328.686C308.15 318.535 257.845 318.535 250.674 328.686C243.503 338.837 268.655 361.171 282.997 361.171Z" fill="#3C3F41" stroke="#002733" stroke-width="8" stroke-linecap="round" stroke-linejoin="round"/>
<path d="M332.33 375.181C331.145 377.722 329.427 380.028 327.297 381.995C322.657 386.278 316.058 388.955 308.736 388.955C294.69 388.955 282.028 377.844 283.055 360.622" stroke="#002733" stroke-width="8" stroke-linecap="round" stroke-linejoin="round"/>
<path d="M233.663 375.181C234.848 377.722 236.566 380.028 238.697 381.995C243.337 386.278 249.936 388.955 257.258 388.955C271.304 388.955 283.966 377.844 282.939 360.622" stroke="#002733" stroke-width="8" stroke-linecap="round" stroke-linejoin="round"/>
</svg>
