<svg width="566" height="566" viewBox="0 0 566 566" fill="none" xmlns="http://www.w3.org/2000/svg">
<path d="M562 283C562 363.03 528.3 435.19 474.32 486.06C461.31 498.33 447.11 509.37 431.92 518.97C388.83 546.23 337.75 562 283 562C228.25 562 177.17 546.23 134.08 518.97C118.34 509.02 103.67 497.53 90.27 484.73C37.11 433.93 4 362.33 4 283C4 128.91 128.91 4 283 4C437.09 4 562 128.91 562 283Z" fill="#F2FEFF" stroke="#002733" stroke-width="8" stroke-linecap="round" stroke-linejoin="round"/>
<path d="M474.32 486.06C461.31 498.33 447.11 509.37 431.92 518.97C388.83 546.23 337.75 562 283 562C228.25 562 177.17 546.23 134.08 518.97C118.34 509.02 103.67 497.53 90.27 484.73C134.6 396.28 122 359.6 122 312C122 260.64 140.02 214.14 169.16 180.48C198.29 146.82 238.54 126 283 126C327.46 126 367.71 146.82 396.84 180.48C425.98 214.14 444 260.64 444 312C444 356.82 436.39 392.96 474.32 486.06Z" fill="#46516A" stroke="#002733" stroke-width="8" stroke-linecap="round" stroke-linejoin="round"/>
<path d="M431.92 518.97C388.83 546.23 337.75 562 283 562C228.25 562 177.17 546.23 134.08 518.97C140.09 477.29 164.89 441.34 200.06 419.11C173.5 409.08 153.61 368.15 153.61 319.18C153.61 262.69 180.08 216.89 212.72 216.89C242.33 216.89 266.85 254.56 271.16 303.71C271.6 308.76 271.83 313.92 271.83 319.18C271.83 320.6 271.81 322.01 271.78 323.42C275.42 322.72 279.16 322.33 283 322.33C288.14 322.33 293.14 323 297.9 324.24C297.86 322.57 297.83 320.88 297.83 319.18C297.83 314.27 298.02 309.44 298.4 304.71C302.34 255.06 326.23 216.89 355.11 216.89C386.74 216.89 412.39 262.69 412.39 319.18C412.39 368.72 392.67 410.03 366.48 419.45C401.37 441.7 425.94 477.51 431.92 518.97Z" fill="white" stroke="#002733" stroke-width="8" stroke-linecap="round" stroke-linejoin="round"/>
<path d="M235 326.667C235 326.667 260.833 301.667 283 301.667C307 301.667 331 326.667 331 326.667C331 326.667 307.5 359.334 283 359.334C256.5 359.334 235 326.667 235 326.667Z" fill="#F8A913" stroke="#002733" stroke-width="8" stroke-linecap="round" stroke-linejoin="round"/>
<path d="M235 326.667C235 326.667 271.667 353.084 331 326.667" stroke="#002733" stroke-width="8" stroke-linecap="round" stroke-linejoin="round"/>
<path d="M213.833 298.333C221.565 298.333 227.833 292.065 227.833 284.333C227.833 276.601 221.565 270.333 213.833 270.333C206.101 270.333 199.833 276.601 199.833 284.333C199.833 292.065 206.101 298.333 213.833 298.333Z" fill="#002733"/>
<path d="M352.167 298.333C359.899 298.333 366.167 292.065 366.167 284.333C366.167 276.601 359.899 270.333 352.167 270.333C344.435 270.333 338.167 276.601 338.167 284.333C338.167 292.065 344.435 298.333 352.167 298.333Z" fill="#002733"/>
</svg>
